<?xml version="1.0" encoding="UTF-8" standalone="no"?>
<!-- Created with Inkscape (http://www.inkscape.org/) -->

<svg
   width="204.588mm"
   height="207.6115mm"
   viewBox="0 0 204.588 207.6115"
   version="1.1"
   id="svg1297"
   inkscape:version="1.2.2 (732a01da63, 2022-12-09)"
   sodipodi:docname="Logo-navbar-OjosVioleta.svg"
   inkscape:export-filename="LogoModeloBase.svg"
   inkscape:export-xdpi="96"
   inkscape:export-ydpi="96"
   xmlns:inkscape="http://www.inkscape.org/namespaces/inkscape"
   xmlns:sodipodi="http://sodipodi.sourceforge.net/DTD/sodipodi-0.dtd"
   xmlns="http://www.w3.org/2000/svg"
   xmlns:svg="http://www.w3.org/2000/svg">
  <sodipodi:namedview
     id="namedview1299"
     pagecolor="#f0f8ff"
     bordercolor="#000000"
     borderopacity="0.25"
     inkscape:showpageshadow="2"
     inkscape:pageopacity="0.0"
     inkscape:pagecheckerboard="0"
     inkscape:deskcolor="#d1d1d1"
     inkscape:document-units="mm"
     showgrid="false"
     inkscape:zoom="0.54660447"
     inkscape:cx="386.93427"
     inkscape:cy="575.37034"
     inkscape:window-width="1920"
     inkscape:window-height="1013"
     inkscape:window-x="-9"
     inkscape:window-y="-9"
     inkscape:window-maximized="1"
     inkscape:current-layer="layer1" />
  <defs
     id="defs1294" />
  <g
     inkscape:label="Capa 1"
     inkscape:groupmode="layer"
     id="layer1"
     transform="translate(-1.7139345,-58.165594)">
    <path
       d="m 123.18606,148.45693 c -0.0874,-1.70428 -0.70429,-3.34971 -1.30464,-4.94588 -1.02589,-2.73127 -2.08642,-5.55479 0.17154,-7.96651 0.75871,-0.81081 1.82418,-1.24006 3.08097,-1.24006 2.96882,0 6.71778,2.41492 8.86687,4.28932 0.51954,-0.69793 1.06713,-1.37999 1.60481,-2.04768 1.6708,-2.08107 3.3993,-4.23208 3.1618,-5.71694 -0.0989,-0.61528 -0.55418,-1.18598 -1.39206,-1.7456 l -0.54592,-0.36413 -0.001,-0.63907 c 0,-0.12573 0.0149,-3.13353 1.92148,-8.46255 0.44696,-1.24641 1.06383,-2.60887 1.77964,-4.18435 2.63896,-5.8155 6.25267,-13.77724 5.6292,-25.454379 -0.85499,-16.009311 -21.03965,-30.589402 -42.34753,-30.589402 -21.30952,0 -41.49254,14.580091 -42.346901,30.589402 -0.623451,11.677139 2.99026,19.638879 5.627562,25.454379 0.715816,1.57548 1.332667,2.93794 1.77964,4.18435 1.908291,5.32902 1.923137,8.33695 1.921486,8.46255 l -0.0016,0.63907 -0.544285,0.36413 c -0.839517,0.55962 -1.294736,1.13032 -1.393694,1.7456 -0.237505,1.48486 1.491005,3.63587 3.163441,5.71694 0.536034,0.66769 1.085265,1.34975 1.604809,2.04768 2.149097,-1.8744 5.896405,-4.28932 8.865222,-4.28932 1.256802,0 2.322276,0.42902 3.082626,1.24006 2.257951,2.41172 1.195775,5.23524 0.1699,7.96651 -0.598716,1.59617 -1.217216,3.2416 -1.30463,4.94588 2.732958,0.61366 11.004404,2.30203 19.376484,2.30203 8.37207,0 16.64353,-1.68837 19.37483,-2.30203 z m 11.00112,-7.95223 c -1.95448,-2.1812 -8.62441,-6.88223 -11.1908,-4.14141 -3.04634,3.2543 1.80108,7.71532 1.45143,13.05705 0,0 -10.15996,2.56277 -20.63659,2.56277 v 0 0 0 0 0 0 c -10.47664,0 -20.638242,-2.56277 -20.638242,-2.56277 -0.349665,-5.34173 4.497761,-9.80275 1.453072,-13.05705 -2.566378,-2.74082 -9.236327,1.96021 -11.192446,4.14141 -3.132102,-4.75349 -8.914703,-9.08728 -3.910597,-12.42748 0,0 0.0085,-2.86642 -1.85221,-8.06029 -2.040238,-5.70265 -8.284655,-14.94415 -7.474827,-30.101372 0.920334,-17.25413 22.343659,-31.749963 43.61525,-31.749963 v 0 0 0 0 c 21.26994,0 42.69325,14.495833 43.61523,31.749963 0.80818,15.157222 -5.43459,24.398722 -7.47647,30.101372 -1.85881,5.19387 -1.85222,8.06029 -1.85222,8.06029 5.00412,3.3402 -0.77682,7.67399 -3.91058,12.42748"
       style="fill:#ffffff;fill-opacity:1;fill-rule:nonzero;stroke:none;stroke-width:0.16193"
       id="path14" />
    <path
       d="m 112.09586,114.49075 c 0,0 -2.0089,0.29248 -3.09251,1.89347 -0.80323,1.18598 -0.53934,2.97931 -0.31998,3.68995 0.11373,0.37178 0.53274,0.0225 0.39586,-0.55805 -0.14844,-0.62798 -0.60035,-1.57233 0.0841,-2.88071 0.75375,-1.44353 2.93253,-2.14466 2.93253,-2.14466"
       style="fill:#ffffff;fill-opacity:1;fill-rule:nonzero;stroke:none;stroke-width:0.16193"
       id="path16" />
    <path
       d="m 130.0869,130.14239 c 8.69865,-5.63587 -10.2754,-7.11595 -20.04282,-7.40212 6.31204,2.14782 26.53959,2.15895 20.04282,7.40212"
       style="fill:#ffffff;fill-opacity:1;fill-rule:nonzero;stroke:none;stroke-width:0.16193"
       id="path18" />
    <path
       d="m 125.33844,116.5305 c -2.53503,1.30838 -9.88781,5.63424 -14.26022,5.63424 -0.94507,0.91253 14.76328,-0.11447 20.79493,3.71059 5.84362,-6.9999 4.48786,-14.65956 5.44779,-16.54983 -2.22497,0.68202 -8.33085,5.31789 -11.9825,7.205"
       style="fill:#4e00cf;fill-opacity:1;fill-rule:nonzero;stroke:none;stroke-width:0.16193"
       id="path20" />
    <path
       d="m 103.81122,128.77195 c 0,0 1.33926,-6.92834 1.78128,-7.09846 0.46679,-0.17981 4.42519,6.62947 3.91389,14.55943 -0.18967,2.94272 -2.126,6.24317 -4.13984,5.38147 -1.57347,-0.67246 -1.55533,-6.02217 -1.55533,-6.02217 v -6.82027"
       style="fill:#ffffff;fill-opacity:1;fill-rule:nonzero;stroke:none;stroke-width:0.16193"
       id="path22" />
    <path
       d="m 103.81122,128.77195 c 0,0 -1.33927,-6.92834 -1.78295,-7.09846 -0.46509,-0.17981 -4.425191,6.62947 -3.913891,14.55943 0.18969,2.94272 2.126001,6.24317 4.141501,5.38147 1.57349,-0.67246 1.55534,-6.02217 1.55534,-6.02217 v -6.82027"
       style="fill:#ffffff;fill-opacity:1;fill-rule:nonzero;stroke:none;stroke-width:0.16193"
       id="path24" />
    <path
       d="m 123.81281,155.07527 c 0,0.88075 -0.39914,1.17327 -0.68283,1.17327 -0.2837,0 -1.59823,0 -1.81758,0 -0.221,0 -0.63171,-0.42136 -0.63171,-1.22415 0,-0.59297 0,-3.37832 0,-4.79324 -0.20452,0.0406 -0.41727,0.0793 -0.63498,0.12077 0,0.49919 0,4.51185 0,5.62316 0,0.87914 -0.55914,1.17166 -0.95498,1.17166 -0.39749,0 -2.23321,0 -2.54163,0 -0.30843,0 -0.88075,-0.41956 -0.88075,-1.22254 0,-0.60257 0,-3.45786 0,-4.85209 -0.20945,0.0271 -0.42222,0.0586 -0.63665,0.0892 0,1.01749 0,4.36561 0,5.36719 0,0.88076 -0.63335,1.17328 -1.08197,1.17328 -0.45028,0 -2.53339,0 -2.88305,0 -0.34967,0 -0.99951,-0.41956 -0.99951,-1.22416 0,-0.58981 0,-3.34813 0,-4.76939 -0.21114,0.018 -0.42222,0.036 -0.63499,0.0509 0,1.07152 0,4.33857 0,5.32424 0,0.88075 -0.67623,1.17327 -1.15784,1.17327 -0.47996,0 -2.70493,0 -3.07767,0 -0.37441,0 -1.06878,-0.41955 -1.06878,-1.22415 0,-0.63272 0,-3.75511 0,-5.05079 -0.10553,0 -0.21114,0.002 -0.31665,0.002 -0.10553,0 -0.21278,-0.002 -0.31834,-0.002 v 5.05079 c 0,0.80446 -0.69437,1.22415 -1.06713,1.22415 -0.3744,0 -2.59938,0 -3.07933,0 -0.479961,0 -1.156191,-0.29247 -1.156191,-1.17327 0,-0.98567 0,-4.25272 0,-5.32424 -0.21277,-0.018 -0.42387,-0.0315 -0.63499,-0.0509 0,1.42126 0,4.17958 0,4.76939 0,0.80446 -0.64984,1.22416 -1.001163,1.22416 -0.349666,0 -2.431129,0 -2.881395,0 -0.450281,0 -1.083621,-0.29248 -1.083621,-1.17328 0,-1.00158 0,-4.3497 0,-5.36719 -0.214413,-0.0315 -0.425551,-0.0604 -0.63499,-0.0892 0,1.39423 0,4.24952 0,4.85209 0,0.80284 -0.573974,1.22254 -0.882408,1.22254 -0.30843,0 -2.144146,0 -2.541636,0 -0.395859,0 -0.953324,-0.29248 -0.953324,-1.17166 0,-1.11131 0,-5.12397 0,-5.62316 -0.219364,-0.0406 -0.432138,-0.0811 -0.636645,-0.12077 0,1.41492 0,4.20027 0,4.79324 0,0.80288 -0.409041,1.22415 -0.630048,1.22415 -0.221002,0 -1.535538,0 -1.819227,0 -0.283697,0 -0.682828,-0.29247 -0.682828,-1.17327 0,-1.04926 0,-4.68355 0,-5.5023 -0.409042,-0.0955 -0.634996,-0.15277 -0.634996,-0.15277 v 5.65493 c 0,1.22736 0.684475,1.78535 1.317824,1.78535 h 1.819227 c 0.244097,0 0.494802,-0.11762 0.707571,-0.32582 0.212772,0.80289 0.862602,1.22416 1.512446,1.22416 h 2.541636 c 0.354615,0 0.729011,-0.18432 1.017644,-0.50239 0.272156,0.69477 0.928584,1.05723 1.583375,1.05723 h 2.881395 c 0.356263,0 0.793333,-0.19063 1.128163,-0.54371 0.27542,0.72019 0.96981,1.09855 1.664181,1.09855 h 3.07933 c 0.45191,0 1.03249,-0.27985 1.38545,-0.79806 0.35293,0.51825 0.93188,0.79806 1.38545,0.79806 h 3.07767 c 0.69437,0 1.3904,-0.37855 1.66583,-1.09855 0.33316,0.35286 0.77026,0.54371 1.12651,0.54371 h 2.88305 c 0.65313,0 1.30957,-0.36233 1.58337,-1.05723 0.28697,0.31816 0.66139,0.50239 1.016,0.50239 h 2.54163 c 0.6515,0 1.30133,-0.42137 1.51246,-1.22416 0.2144,0.2082 0.46345,0.32582 0.70756,0.32582 h 1.81923 c 0.63499,0 1.31783,-0.55799 1.31783,-1.78535 v -5.65493 c 0,0 -0.22597,0.0572 -0.635,0.15277 0,0.81875 0,4.45304 0,5.5023"
       style="fill:#ffffff;fill-opacity:1;fill-rule:nonzero;stroke:none;stroke-width:0.16193"
       id="path26" />
    <path
       d="m 141.21667,86.27969 c 0.48657,-4.322682 -1.53058,-5.834583 -1.53058,-5.834583 0,0 1.11826,1.85689 1.11826,3.867978 0,2.426047 -2.41135,14.155643 -2.65381,18.362265 -0.1633,2.84732 1.09353,2.76467 0.33154,4.38148 -1.27823,2.71541 -21.68227,14.08885 -27.05914,14.83604 -2.62905,0.36412 -2.21836,-4.80915 1.94293,-6.92357 0,0 -2.40805,0.61208 -4.27344,3.13668 -1.04735,1.41492 -1.72192,4.39103 2.65049,4.39103 4.37076,0 29.40614,-13.53239 28.39016,-16.63252 -0.47501,-1.45309 -1.25517,-1.4197 -1.13146,-4.97291 0.12034,-3.416495 1.72521,-10.241501 2.21508,-14.61189"
       style="fill:#ffffff;fill-opacity:1;fill-rule:nonzero;stroke:none;stroke-width:0.16193"
       id="path28" />
    <path
       d="m 106.94497,147.31542 0.11718,-3.99355 c 0,0 1.86872,-0.0136 3.46198,-1.41334 1.48606,-1.30685 1.53389,-3.9634 1.53389,-3.9634 0,0 -0.0313,2.82032 -0.70428,3.81397 -0.69106,1.02221 -1.69221,1.25592 -3.01499,2.71378 -0.95002,1.04926 -1.39369,2.84254 -1.39369,2.84254"
       style="fill:#ffffff;fill-opacity:1;fill-rule:nonzero;stroke:none;stroke-width:0.16193"
       id="path30" />
    <path
       d="m 100.67581,147.31542 -0.11544,-3.99355 c 0,0 -1.870361,-0.0136 -3.463621,-1.41334 -1.486056,-1.30685 -1.53389,-3.9634 -1.53389,-3.9634 0,0 0.03321,2.82032 0.704264,3.81397 0.692736,1.02221 1.692226,1.25592 3.015007,2.71378 0.95002,1.04926 1.39369,2.84254 1.39369,2.84254"
       style="fill:#ffffff;fill-opacity:1;fill-rule:nonzero;stroke:none;stroke-width:0.16193"
       id="path32" />
    <path
       d="m 104.13284,151.43462 -0.32162,-2.63907 v 2.70428 z"
       style="fill:#ffffff;fill-opacity:1;fill-rule:nonzero;stroke:none;stroke-width:0.16193"
       id="path34" />
    <path
       d="m 103.81122,151.49983 v -2.70428 l -0.32161,2.63907 z"
       style="fill:#ffffff;fill-opacity:1;fill-rule:nonzero;stroke:none;stroke-width:0.16193"
       id="path36" />
    <path
       d="m 109.42394,151.23115 0.17152,-2.66453 0.4371,2.66453 z"
       style="fill:#ffffff;fill-opacity:1;fill-rule:nonzero;stroke:none;stroke-width:0.16193"
       id="path38" />
    <path
       d="m 115.03335,150.68266 v -2.868 l 0.55419,2.868 z"
       style="fill:#ffffff;fill-opacity:1;fill-rule:nonzero;stroke:none;stroke-width:0.16193"
       id="path40" />
    <path
       d="m 120.049,149.93386 -0.41232,-3.08901 0.93849,2.97134 z"
       style="fill:#ffffff;fill-opacity:1;fill-rule:nonzero;stroke:none;stroke-width:0.16193"
       id="path42" />
    <path
       d="m 98.198489,151.23115 -0.17316,-2.66453 -0.43542,2.66453 z"
       style="fill:#ffffff;fill-opacity:1;fill-rule:nonzero;stroke:none;stroke-width:0.16193"
       id="path44" />
    <path
       d="m 92.58908,150.68266 v -2.868 l -0.555827,2.868 z"
       style="fill:#ffffff;fill-opacity:1;fill-rule:nonzero;stroke:none;stroke-width:0.16193"
       id="path46" />
    <path
       d="m 87.573427,149.93386 0.412315,-3.08901 -0.940123,2.97134 z"
       style="fill:#ffffff;fill-opacity:1;fill-rule:nonzero;stroke:none;stroke-width:0.16193"
       id="path48" />
    <path
       d="m 107.58657,122.74027 c 0,0 1.91653,3.30198 2.66698,5.29085 0.68118,1.80284 1.59162,5.89819 1.59162,5.89819 0,0 -0.30679,-2.37836 -0.80818,-4.97291 -0.38926,-2.02064 -1.14959,-3.80761 -1.14959,-4.24001 0,-0.43398 2.27939,-0.19378 4.68413,0.70108 4.78804,1.7822 8.17415,3.78693 8.17415,3.78693 0,0 -3.6467,-2.35291 -8.03066,-4.22731 -3.97821,-1.6995 -7.12845,-2.23682 -7.12845,-2.23682"
       style="fill:#ffffff;fill-opacity:1;fill-rule:nonzero;stroke:none;stroke-width:0.16193"
       id="path50" />
    <path
       d="m 95.526564,114.49075 c 0,0 2.008895,0.29248 3.092515,1.89347 0.801591,1.18598 0.537691,2.97931 0.319981,3.68995 -0.115461,0.37178 -0.532741,0.0225 -0.397491,-0.55805 0.14844,-0.62798 0.602011,-1.57233 -0.0825,-2.88071 -0.75539,-1.44353 -2.932518,-2.14466 -2.932518,-2.14466"
       style="fill:#ffffff;fill-opacity:1;fill-rule:nonzero;stroke:none;stroke-width:0.16193"
       id="path52" />
    <path
       d="m 77.53552,130.14239 c -8.698638,-5.63587 10.275413,-7.11595 20.042829,-7.40212 -6.312047,2.14782 -26.539594,2.15895 -20.042829,7.40212"
       style="fill:#ffffff;fill-opacity:1;fill-rule:nonzero;stroke:none;stroke-width:0.16193"
       id="path54" />
    <path
       d="m 82.282334,116.5305 c 2.535038,1.30838 9.889462,5.63424 14.260217,5.63424 0.946728,0.91253 -14.76162,-0.11447 -20.794919,3.71059 -5.843626,-6.9999 -4.487861,-14.65956 -5.447781,-16.54983 2.224963,0.68202 8.332482,5.31789 11.982483,7.205"
       style="fill:#4e00cf;fill-opacity:1;fill-rule:nonzero;stroke:none;stroke-width:0.16193"
       id="path56"
       inkscape:highlight-color="#5111c2" />
    <path
       d="m 66.404102,86.27969 c -0.484909,-4.322682 1.532238,-5.834583 1.532238,-5.834583 0,0 -1.119906,1.85689 -1.119906,3.867978 0,2.426047 2.411341,14.155643 2.653799,18.362265 0.164943,2.84732 -1.091868,2.76467 -0.331527,4.38148 1.279893,2.71541 21.682272,14.08885 27.060778,14.83604 2.629055,0.36412 2.216725,-4.80915 -1.942919,-6.92357 0,0 2.406384,0.61208 4.273444,3.13668 1.045691,1.41492 1.720271,4.39103 -2.650487,4.39103 -4.370768,0 -29.407801,-13.53239 -28.391806,-16.63252 0.476655,-1.45309 1.256797,-1.4197 1.131447,-4.97291 -0.118745,-3.416495 -1.723566,-10.241501 -2.215066,-14.61189"
       style="fill:#ffffff;fill-opacity:1;fill-rule:nonzero;stroke:none;stroke-width:0.16193"
       id="path58" />
    <path
       d="m 100.03586,122.74027 c 0,0 -1.918191,3.30198 -2.668631,5.29085 -0.67953,1.80284 -1.589961,5.89819 -1.589961,5.89819 0,0 0.305109,-2.37836 0.806518,-4.97291 0.389273,-2.02064 1.149603,-3.80761 1.149603,-4.24001 0,-0.43398 -2.279404,-0.19378 -4.682496,0.70108 -4.788041,1.7822 -8.175795,3.78693 -8.175795,3.78693 0,0 3.648351,-2.35291 8.030653,-4.22731 3.979868,-1.6995 7.130109,-2.23682 7.130109,-2.23682"
       style="fill:#ffffff;fill-opacity:1;fill-rule:nonzero;stroke:none;stroke-width:0.16193"
       id="path60" />
    <path
       d="m 103.81122,110.23168 c -11.029161,0 -29.874567,-9.26381 -29.874567,-9.26381 0,0 20.504638,9.97764 29.874567,9.97764 9.36992,0 29.87291,-9.97764 29.87291,-9.97764 0,0 -18.8454,9.26381 -29.87291,9.26381"
       style="fill:#ffffff;fill-opacity:1;fill-rule:nonzero;stroke:none;stroke-width:0.16193"
       id="path62" />
    <path
       d="m 103.81122,62.043126 c -21.77794,0 -30.82624,11.537206 -30.82624,11.537206 0,0 9.0483,-10.823384 30.82624,-10.823384 21.77793,0 30.82623,10.823384 30.82623,10.823384 0,0 -9.0483,-11.537206 -30.82623,-11.537206"
       style="fill:#ffffff;fill-opacity:1;fill-rule:nonzero;stroke:none;stroke-width:0.16193"
       id="path64" />
    <path
       d="m 41.517152,146.43471 c 0.361214,-0.56597 1.129801,-0.74245 1.716968,-0.39432 0.587168,0.34835 0.770241,1.089 0.409042,1.65498 -0.361214,0.56597 -1.129801,0.74245 -1.716968,0.39432 -0.587166,-0.34835 -0.770242,-1.08905 -0.409042,-1.65498 z m 0.13853,2.07945 c 0.829618,0.49284 1.916538,0.24336 2.427833,-0.55642 0.511296,-0.80126 0.252374,-1.84894 -0.57892,-2.34178 -0.829623,-0.49125 -1.916538,-0.24154 -2.427834,0.558 -0.511295,0.79969 -0.252372,1.84737 0.578921,2.3402 z m -0.166583,2.18441 c 0.361215,-0.56598 1.129802,-0.74245 1.716968,-0.39432 0.587168,0.34835 0.770244,1.089 0.409043,1.65498 -0.361213,0.56597 -1.1298,0.74245 -1.716968,0.39432 -0.587167,-0.34836 -0.770242,-1.08905 -0.409043,-1.65498 z m 0.136891,2.07945 c 0.831269,0.49283 1.918184,0.24335 2.42948,-0.55642 0.509649,-0.80126 0.252372,-1.84894 -0.578921,-2.34178 -0.829618,-0.49125 -1.916532,-0.24155 -2.427828,0.558 -0.511301,0.79969 -0.252373,1.84736 0.577269,2.3402 z m -1.3805,2.14146 c 0.361213,-0.56598 1.129801,-0.74246 1.716963,-0.39432 0.587167,0.34835 0.770247,1.089 0.409043,1.65497 -0.361215,0.56598 -1.129797,0.74245 -1.716965,0.39433 -0.587167,-0.34836 -0.770247,-1.08901 -0.409041,-1.65498 z m 0.138529,2.07945 c 0.829619,0.49287 1.916538,0.24335 2.427833,-0.55643 0.511297,-0.80126 0.252373,-1.84894 -0.578918,-2.34177 -0.829619,-0.49126 -1.916538,-0.24155 -2.427835,0.55804 -0.511296,0.79964 -0.252326,1.84732 0.57892,2.34016 z m 99.377901,66.33775 -17.14988,-2.67405 c 0.55583,-2.97767 -1.71366,-4.72487 -3.81327,-6.019 l 0.0908,-0.14286 6.16525,3.51983 c -0.0727,0.0572 -0.1419,0.11939 -0.19463,0.20055 -0.2507,0.3925 -0.12365,0.90621 0.28368,1.14628 0.40573,0.24154 0.93849,0.11939 1.18919,-0.27176 0.25069,-0.39251 0.12364,-0.90616 -0.28371,-1.1478 -0.26881,-0.15909 -0.58881,-0.14647 -0.8494,-0.0136 l -6.23121,-3.55637 0.37603,-0.58823 8.1626,4.72965 c -0.10548,0.0653 -0.19959,0.1478 -0.26883,0.25776 -0.2507,0.39117 -0.12365,0.9046 0.2837,1.14629 0.40572,0.24155 0.93847,0.11939 1.18918,-0.27354 0.25069,-0.39117 0.12364,-0.90461 -0.28371,-1.14624 -0.2375,-0.13971 -0.51129,-0.14467 -0.75375,-0.0572 l -8.25001,-4.78056 0.4189,-0.65499 10.18801,5.99991 c -0.16327,0.0635 -0.31503,0.16358 -0.41401,0.3195 -0.25068,0.39252 -0.12365,0.90619 0.28202,1.14787 0.40741,0.24019 0.94012,0.11763 1.19083,-0.27355 0.24904,-0.39251 0.12207,-0.90618 -0.28371,-1.14624 -0.18139,-0.10808 -0.38594,-0.13203 -0.58055,-0.10503 l -10.30346,-6.06827 0.38431,-0.60095 12.15237,7.25745 c -0.18472,0.0605 -0.35461,0.1699 -0.4651,0.34341 -0.24907,0.39251 -0.12207,0.90616 0.28369,1.14622 0.40741,0.24157 0.94012,0.11941 1.18918,-0.27174 0.2507,-0.39251 0.12365,-0.90621 -0.28202,-1.14785 -0.15666,-0.0924 -0.32988,-0.11582 -0.50139,-0.10632 l -12.29751,-7.34492 0.39418,-0.62002 14.07219,8.54998 c -0.19131,0.0572 -0.36617,0.1717 -0.47995,0.34969 -0.2507,0.39117 -0.12365,0.9046 0.2837,1.14625 0.40572,0.24155 0.93847,0.11939 1.18918,-0.27355 0.25069,-0.39117 0.12364,-0.90459 -0.2837,-1.14624 -0.14845,-0.0887 -0.3134,-0.11265 -0.47667,-0.10808 l -14.22559,-8.64216 0.37772,-0.58983 15.9574,9.83456 c -0.17648,0.0618 -0.33811,0.16674 -0.44368,0.33213 -0.2507,0.39252 -0.12365,0.90618 0.2837,1.14782 0.40572,0.24019 0.93847,0.11763 1.18918,-0.27354 0.25069,-0.39253 0.12364,-0.90619 -0.2837,-1.14625 -0.16822,-0.10011 -0.35627,-0.12388 -0.53769,-0.10632 l -16.08605,-9.91244 0.12869,-0.20189 c 3.06612,1.46742 4.90018,0.40874 5.8502,-0.6073 l 13.98645,11.06506 z m -25.50876,-11.29552 0.14192,0.0794 0.0874,-0.13656 3.53949,2.02065 -0.0742,0.11629 z m -60.999278,-29.2556 c -0.466782,0.73133 -0.913737,2.32429 -2.615856,2.20982 -1.8852,-0.12578 -2.985313,-4.07782 -8.612875,-7.84249 -5.014006,-3.35447 -8.86852,-2.34019 -13.112284,-5.3163 -2.775844,-1.9475 -3.856162,-4.26227 -3.917189,-6.55637 l -0.750452,-0.44525 c 0.97971,0.58184 2.261253,0.28617 2.863264,-0.6566 l 0.974758,-1.52623 6.694686,3.82348 -0.547581,1.1876 0.856012,0.83466 1.217215,0.054 0.440367,-0.9539 4.558786,2.60253 -0.712517,1.11762 0.733958,0.93641 1.199076,0.21 0.732306,-1.14944 3.727518,2.12875 -0.771894,1.20825 0.735609,0.93637 1.197425,0.21 0.791683,-1.24006 5.010707,2.86169 -0.489856,1.52938 2.007253,1.13033 c -0.78179,0.76152 -1.537188,1.65341 -2.210123,2.70586 z m -24.632945,-30.87081 -3.04634,4.77259 z m 6.105868,-13.03641 c 1.622958,-0.43578 3.382808,0.44975 5.055238,1.32434 4.710528,2.46101 6.473675,4.80279 8.340734,7.28444 1.354109,1.79969 2.7544,3.66134 5.137702,5.40694 3.006754,2.20347 7.130116,3.35768 11.495928,4.58021 2.68183,0.75201 5.431288,1.52145 8.055391,2.5612 0.204544,0.0811 0.328207,0.28436 0.300202,0.49603 -0.02805,0.21136 -0.201226,0.37855 -0.420591,0.40875 -3.491662,0.46106 -6.735922,2.399 -9.132417,5.45619 -0.273786,0.34836 -0.534387,0.71703 -0.77684,1.09698 -0.865908,1.35768 -1.446477,2.78693 -1.837371,4.16371 l -2.027043,-1.26389 -1.204021,1.11762 -4.903498,-3.02065 0.796635,-1.24798 -0.664689,-1.0461 -1.268344,-0.1 -0.775189,1.2146 -3.650002,-2.24799 0.735609,-1.15417 -0.663033,-1.0461 -1.26835,-0.10004 -0.715812,1.12239 -5.355421,-3.3004 0.55913,-1.20987 -0.801583,-0.95227 -1.271645,0.0635 -0.418906,0.9078 -5.658901,-3.48643 0.813129,-1.27504 c 0.602006,-0.94276 0.296882,-2.17805 -0.681182,-2.75989 l 1.626253,0.96499 c 7.324734,-5.22411 0.453552,-10.28923 -0.326571,-11.27489 -0.743854,-0.94115 -0.166579,-2.39743 0.905491,-2.6836 z m 85.737845,71.29953 -3.46694,-2.13666 0.10887,-0.17035 -0.47336,-0.29563 -0.11062,0.17349 -4.08377,-2.51666 0.12537,-0.19559 -0.45687,-0.28436 8.45453,5.27498 z m -5.51212,1.06679 3.52794,2.04287 -0.37935,0.59301 -3.5395,-2.02065 z m -5.047,-2.04291 0.41069,-0.64387 4.1547,2.40698 -0.39418,0.6168 z m -0.0791,0.12389 4.16954,2.38152 -0.089,0.13835 -4.18604,-2.35611 z m -4.26685,-2.43717 3.78195,2.16055 -0.10726,0.16675 0.10222,0.0572 -3.89739,-2.19553 z m -4.21902,-2.40852 3.73411,2.1319 -0.12365,0.19243 -3.74731,-2.10968 z m -3.884201,-1.89508 0.15007,-0.23705 3.249211,1.85529 -0.1386,0.21633 -3.354771,-1.8887 z m -3.534547,-2.34016 3.199717,1.82668 -0.15176,0.2384 -3.212912,-1.80757 z m -3.443835,-1.9666 2.958932,1.68837 -0.16658,0.26093 -2.968824,-1.67089 z m -3.199722,-1.82668 2.714818,1.55007 -0.178128,0.27985 -2.726366,-1.5342 z m -3.402597,-1.51189 0.201224,-0.31637 2.716469,1.55008 -0.191313,0.30058 -2.769248,-1.55962 z m -2.708222,-1.97773 2.424534,1.38471 -0.202863,0.31816 -2.43278,-1.37042 z m -2.812129,-1.60569 2.327221,1.32907 -0.212773,0.33529 -2.33712,-1.31474 z m -2.655447,-1.02068 0.230913,-0.36414 1.939628,1.10808 -0.22432,0.35151 -2.003953,-1.12718 z m -2.096313,-1.69316 1.842317,1.05246 -0.232549,0.36549 -1.850567,-1.04133 z m -2.424539,-1.38309 1.93963,1.10648 -0.242462,0.37991 0.283697,0.15908 -2.229915,-1.25435 z m -2.084769,-1.19075 1.599864,0.91409 -0.250689,0.39253 0.135252,0.078 -1.741706,-0.98252 z m -4.395503,-1.92687 0.273787,-0.42587 1.454721,0.82987 -0.267194,0.41822 0.486554,0.27491 0.265558,-0.41641 1.697177,0.96975 -0.258964,0.40559 0.158351,0.0906 -4.164593,-2.34498 z m -1.995704,-1.12239 0.280378,-0.4403 1.504199,0.85851 -0.275422,0.43081 -1.591619,-0.89503 z m -1.604813,-0.90459 0.285334,-0.44841 1.114957,0.63597 -0.282015,0.44208 -1.43163,-0.80604 z m -2.066625,-1.16378 0.216047,0.12258 0.293562,-0.45944 1.35741,0.7758 -0.288655,0.45151 z m -9.366622,-7.53248 4.690734,2.71856 -0.364487,1.1383 -4.976072,-2.84096 z m -5.658899,-3.27814 3.712673,2.15096 -0.65644,1.02861 -3.725869,-2.12875 z m -6.6551,-3.85687 4.710524,2.72969 -0.679527,1.06355 -4.575282,-2.61362 z m -8.457837,-4.89978 6.498417,3.76462 -0.550882,1.19239 -6.67819,-3.81235 z m 8.538655,-0.65344 -5.851873,-3.5548 0.730661,-1.14466 5.67539,3.49757 z m 7.146604,4.34177 -5.206975,-3.16372 0.549232,-1.18918 5.335625,3.28931 z m 5.584679,3.39265 -3.664844,-2.2273 0.671284,-1.05089 3.649996,2.24958 z m 6.547895,3.97769 -4.628059,-2.81238 0.648193,-1.01587 4.872158,3.00152 z m 7.81459,3.26543 -1.329371,-0.81874 0.3002,-0.47058 1.324425,0.82668 z m 3.796787,1.72334 -0.282015,0.44209 -1.472861,-0.90621 0.288653,-0.45151 -0.473361,-0.29562 -0.290289,0.45308 -1.091866,-0.67252 0.293562,-0.45944 3.128807,1.95227 z m 1.616355,1.61208 -1.425033,-0.87756 0.282015,-0.44028 1.418436,0.88552 z m 2.137554,1.31793 -1.662543,-1.02541 0.273786,-0.42948 1.657587,1.0334 z m 2.041883,1.25755 -1.566872,-0.96498 0.265558,-0.41821 1.561925,0.97458 z m 2.373409,1.46264 -1.898398,-1.17012 0.258966,-0.40694 -0.13689,-0.086 2.030339,1.2671 z m 4.654448,2.868 -1.900044,-1.17012 0.244097,-0.3817 -0.47336,-0.29427 -0.245734,0.38306 -1.804382,-1.11285 0.25069,-0.39251 4.164593,2.59774 z m 2.754404,1.69788 -2.279393,-1.40536 0.234186,-0.36728 2.271146,1.41649 z m 2.848416,1.75516 -2.373405,-1.46259 0.224321,-0.35287 -0.100612,-0.0622 2.465771,1.53893 z m 3.135398,1.93164 -2.660387,-1.63912 0.214409,-0.33709 2.650496,1.65341 z m 6.505016,4.00789 -2.896247,-1.78537 0.19131,-0.30057 -0.473358,-0.29563 -0.193006,0.30374 -2.660381,-1.63749 0.204498,-0.31952 -0.217729,-0.13516 6.226275,3.88549 z m 3.608761,2.22414 -3.133751,-1.93163 0.17977,-0.28301 -0.0594,-0.0361 3.183241,1.98568 z m 3.6566,2.25274 -3.18158,-1.96022 0.16821,-0.26227 3.17005,1.97769 z m 4.1316,2.54527 -3.6566,-2.25275 0.15503,-0.24157 -0.0676,-0.0451 3.71103,2.31633 z m 0.47501,0.29249 0.14018,-0.21768 -0.17152,-0.10808 3.8611,2.41014 -0.12695,0.19874 z m 3.21128,3.0556 -3.71927,-2.25913 0.42881,-0.67088 3.70278,2.28138 z m 4.57693,2.78057 -4.10027,-2.49125 0.41068,-0.64543 4.08378,2.51663 z m 3.95678,2.40378 -3.48012,-2.11445 0.39254,-0.61686 3.46692,2.13673 z m -4.5357,-0.46262 3.51145,2.0683 -0.42222,0.66139 -3.52794,-2.04291 z m -4.61651,-2.71857 4.13655,2.43555 -0.44038,0.69 -4.15469,-2.40699 z m -4.70888,-1.74404 0.47667,-0.74717 3.75225,2.20819 -0.46183,0.72181 z m -0.0792,0.12389 3.7671,2.18279 -0.41231,0.64705 -3.78194,-2.16053 z m -4.20252,-2.43397 3.71927,2.15416 -0.42882,0.67247 -3.73411,-2.13191 z m -3.719271,-2.15579 3.236021,1.87598 -0.44532,0.69792 -3.249221,-1.85533 z m -3.67144,-2.1256 3.18819,1.84579 -0.46015,0.72176 -3.19973,-1.82825 z m -3.428986,-1.98725 2.947375,1.70749 -0.475011,0.7424 -2.958918,-1.68837 z m -3.188179,-1.84735 2.70492,1.56755 -0.488203,0.76471 -2.71482,-1.55006 z m -3.186534,-1.84732 2.704925,1.56755 -0.501402,0.78378 -2.714819,-1.55007 z m -2.899544,-1.67887 2.416286,1.39905 -0.512946,0.80442 -2.424533,-1.38473 z m -2.800587,-1.62315 2.318979,1.34335 -0.524494,0.82194 -2.328873,-1.32906 z m -2.41464,-1.39906 1.931382,1.11925 -0.536038,0.83943 -1.939624,-1.10811 z m -2.318975,-1.34335 1.835717,1.06354 -0.545931,0.85376 -1.842318,-1.05244 z m -2.41464,-1.39907 1.931382,1.11925 -0.554183,0.86802 -1.939624,-1.1065 z m -2.078173,-1.20346 1.594915,0.92366 -0.564076,0.88234 -1.599861,-0.91252 z m -2.172184,-1.25912 1.690575,0.97932 -0.572321,0.89666 -1.697174,-0.9698 z m -1.933032,-1.11925 1.449774,0.83945 -0.580571,0.90937 -1.45472,-0.83145 z m -1.979211,-1.1478 1.495951,0.868 -0.587166,0.9205 -1.5042,-0.85849 z m -1.59492,-0.92371 1.11166,0.6439 -0.597063,0.93322 -1.114957,-0.63592 z m -1.835716,-1.06353 1.352462,0.78373 -0.60201,0.94433 -1.357409,-0.77579 z m -2.256301,0.009 0.615203,-0.96182 1.15784,0.67093 -0.608608,0.95548 z m -2.134255,-1.04925 -0.3002,0.47058 -0.618506,-0.33844 0.306793,-0.4817 z m -0.13689,-3.26385 0.526139,0.31005 -0.700972,1.09856 -0.23255,-0.1352 z m -5.230072,-3.07944 4.341076,2.55636 -0.409042,1.27981 -4.657749,-2.69788 z m -5.632508,-3.31636 3.696179,2.17648 -0.735608,1.151 -3.711023,-2.15101 z m -6.813438,-4.01266 4.877109,2.8712 -0.76035,1.19075 -4.728667,-2.73924 z m -7.420395,-6.12235 6.084427,3.63429 -0.555829,1.20351 -6.262557,-3.68837 z m 13.138671,7.67561 -5.045345,-3.0127 0.611909,-1.32429 5.190485,3.15258 z m 5.611067,3.35128 -3.681334,-2.19869 0.74715,-1.17008 3.663195,2.22569 z m 6.254309,3.73606 -4.324577,-2.58342 0.720764,-1.1288 4.59507,2.79171 z m 2.101264,-0.24652 -0.692726,1.08743 -0.524489,-0.3132 0.986307,-0.91416 z m 0.08083,-0.12391 -0.19959,-0.12078 0.677881,-0.62957 z m 3.316828,0.50396 -1.063823,-0.65498 0.301837,-0.4722 1.05063,0.67409 z m 0.475011,0.29247 0.283697,-0.44524 0.631699,0.40693 0.494803,0.31637 -0.270467,0.4245 z m 0.450279,1.7822 -1.144646,-0.69635 0.615205,-0.96182 1.139699,0.7027 z m 1.812629,1.10013 -1.335967,-0.81082 0.608607,-0.95227 1.329366,0.81875 z m 1.571823,0.95548 -1.095166,-0.66611 0.60036,-0.9412 1.091866,0.67409 z m 1.956121,1.18756 -1.477813,-0.89819 0.593763,-0.93006 1.472866,0.90617 z m 1.906641,1.15899 -1.429981,-0.86963 0.585516,-0.91892 1.425033,0.8776 z m 2.145795,1.30365 -1.669135,-1.01429 0.578919,-0.90622 1.662539,1.02384 z m 2.050136,1.24479 -1.573474,-0.95547 0.570672,-0.89346 1.566876,0.96502 z m 2.383302,1.4483 -1.906641,-1.15894 0.562424,-0.88076 1.898394,1.17008 z m 2.28764,1.39109 -1.81098,-1.10171 0.552528,-0.86648 1.804382,1.1129 z m 2.384953,1.44831 -1.908291,-1.15895 0.544279,-0.85214 1.900044,1.17008 z m 2.764297,1.67885 -2.287642,-1.38949 0.534388,-0.83781 2.279393,1.40536 z m 2.861613,1.73763 -2.384953,-1.44831 0.52449,-0.81873 2.373404,1.46263 z m 3.145296,1.91258 -2.668639,-1.62163 0.511295,-0.80284 2.658743,1.63908 z m 3.146952,1.9109 -2.67029,-1.62159 0.499748,-0.78219 2.66039,1.63754 z m 3.384457,2.05724 -2.907792,-1.7663 0.488194,-0.76308 2.896263,1.78377 z m 3.623597,2.20188 -3.145293,-1.91256 0.473372,-0.74242 3.133751,1.93159 z m 3.67144,2.22889 -3.19477,-1.93956 0.46014,-0.7202 3.18159,1.96026 z m 0.47666,0.29112 0.44532,-0.69792 3.6566,2.25434 -0.4305,0.67246 z m 3.1321,3.07309 -3.68793,-2.20189 0.47667,-0.74718 3.67143,2.23047 z m 4.21573,2.51825 -3.73577,-2.23208 0.45688,-0.71541 3.71927,2.25911 z m 4.59837,2.7472 -4.12006,-2.46103 0.43873,-0.68521 4.10027,2.49121 z m 0.47997,0.28614 0.41562,-0.65181 3.48011,2.11441 -0.39911,0.62641 z m -0.0791,0.12388 3.49661,2.08901 -0.38757,0.60735 -3.51147,-2.06837 z m -4.60002,-2.74717 4.12006,2.46102 -0.40245,0.63118 -4.13656,-2.43561 z m -4.21408,-2.51825 3.73576,2.23208 -0.42059,0.6598 -3.75225,-2.20825 z m -4.6198,-1.78059 0.4519,-0.70742 3.68794,2.20184 -0.43709,0.68521 z m -0.0792,0.12389 3.70278,2.1812 -0.47995,0.75039 -3.71927,-2.15417 z m -3.702761,-2.18121 3.221151,1.89824 -0.4981,0.78057 -3.236011,-1.87596 z m -3.654957,-2.15102 3.173347,1.86801 -0.51459,0.80604 -3.188187,-1.84574 z m -3.414132,-2.01107 2.932536,1.72812 -0.529445,0.82988 -2.947379,-1.70587 z m -3.173343,-1.86964 2.691733,1.58663 -0.545936,0.85533 -2.704924,-1.56755 z m -3.174989,-1.86799 2.693382,1.58504 -0.559129,0.87755 -2.704925,-1.56755 z m -2.8847,-1.69951 2.404743,1.4165 -0.573973,0.89824 -2.414635,-1.39902 z m -2.789039,-1.64226 2.30743,1.35925 -0.585515,0.91893 -2.318979,-1.3434 z m -2.404742,-1.41655 1.923134,1.13353 -0.598715,0.938 -1.931377,-1.1192 z m -2.307431,-1.35925 1.827468,1.07629 -0.610253,0.95548 -1.835722,-1.0636 z m -2.404744,-1.41493 1.923135,1.13191 -0.620156,0.97139 -1.931382,-1.11924 z m -2.06828,-1.21779 1.586672,0.93321 -0.630053,0.98887 -1.594914,-0.92369 z m -2.163936,-1.27503 1.683978,0.99044 -0.639946,1.00316 -1.690575,-0.97932 z m -1.923135,-1.13195 1.443172,0.84898 -0.649838,1.01744 -1.449774,-0.83939 z m -1.972615,-1.16215 1.491008,0.87755 -0.658092,1.03183 -1.495952,-0.86805 z m -1.586671,-0.93479 1.106709,0.65183 -0.666333,1.04447 -1.111657,-0.64384 z m -1.827469,-1.07471 1.347511,0.7917 -0.674582,1.05565 -1.352462,-0.78377 z m -1.634501,-0.96341 1.154539,0.67882 -0.682829,1.06836 -1.15784,-0.67088 z m -2.251355,0.16854 0.694376,-1.08585 1.077017,0.63434 -0.689426,1.0795 z m -0.07915,0.12574 1.081969,0.6264 -0.616856,0.96498 -1.08527,-0.62 z m -0.483258,-0.27986 -0.621802,0.97296 -0.611909,-0.34836 0.625102,-0.97768 z m 0.775188,-1.2146 -0.696022,1.09062 -0.608608,-0.35286 0.699324,-1.0954 z m 1.474516,-2.31001 -0.689425,1.0795 -0.603661,-0.36097 0.692726,-1.08427 z m 0.07915,-0.12393 -0.60036,-0.36548 0.623453,-0.97774 0.59871,0.36864 z m 0.476662,0.28932 0.620152,-0.97139 1.063826,0.65503 -0.616854,0.96503 z m 0.306793,1.84101 -1.072074,-0.6407 0.686129,-1.07629 1.067124,0.64862 z m 1.629551,0.97296 -1.149593,-0.6868 0.677882,-1.06359 1.144642,0.69474 z m 1.819225,1.08584 -1.340914,-0.79968 0.671281,-1.05246 1.335967,0.81082 z m 1.581721,0.94435 -1.101763,-0.65818 0.663038,-1.03817 1.095162,0.66616 z m 1.962717,1.17328 -1.48441,-0.88712 0.656442,-1.02546 1.477812,0.89666 z m 1.916538,1.14465 -1.436576,-0.8585 0.646542,-1.0127 1.429981,0.86962 z m 2.155695,1.28774 -1.675733,-1.00157 0.636645,-0.99843 1.669135,1.01429 z m 2.060027,1.23051 -1.581721,-0.94435 0.628403,-0.9825 1.573474,0.95546 z m 2.394849,1.43081 -1.916538,-1.14464 0.618506,-0.96661 1.906641,1.15736 z m 2.299184,1.37198 -1.820876,-1.08581 0.606957,-0.95069 1.81098,1.1017 z m 2.394847,1.43082 -1.914888,-1.14465 0.593764,-0.9316 1.908289,1.15894 z m 2.779145,1.65977 -2.299185,-1.3736 0.583866,-0.9141 2.287643,1.38945 z m 2.873157,1.71698 -2.39485,-1.43084 0.570676,-0.89346 2.383299,1.44831 z m 3.161791,1.88868 -2.681833,-1.60252 0.557479,-0.87278 2.668639,1.62158 z m 3.161794,1.88711 -2.681837,-1.60095 0.540985,-0.85051 2.670297,1.62159 z m 3.400949,2.03177 -2.922645,-1.7456 0.527791,-0.8251 2.907793,1.76628 z m 3.640088,2.17486 -3.161785,-1.88869 0.5113,-0.80126 3.146946,1.91252 z m 0.479971,0.28616 0.49314,-0.77421 3.19479,1.94113 -0.47832,0.75039 z m -0.0792,0.12388 3.20964,1.91729 -0.45524,0.71065 -3.221171,-1.89824 z m -3.641744,-2.17486 3.161783,1.88869 -0.46841,0.7329 -3.17333,-1.86806 z m -3.400948,-2.03177 2.922645,1.74562 -0.483264,0.75514 -2.932522,-1.72654 z m -3.160139,-1.88711 2.681835,1.60094 -0.496448,0.77743 -2.691737,-1.58665 z m -3.161791,-1.88868 2.681834,1.60252 -0.508001,0.79491 -2.693377,-1.58504 z m -2.874807,-1.71699 2.394844,1.43082 -0.519542,0.8156 -2.404744,-1.41654 z m -2.777496,-1.65975 2.299188,1.37358 -0.532742,0.83309 -2.307431,-1.35931 z m -2.396495,-1.43083 1.916538,1.14466 -0.542635,0.85057 -1.923135,-1.13353 z m -2.299185,-1.37201 1.820876,1.08584 -0.550881,0.86486 -1.827473,-1.0763 z m -2.394845,-1.43082 1.916533,1.14465 -0.560774,0.8776 -1.923136,-1.13351 z m -2.060033,-1.23052 1.58172,0.94435 -0.570672,0.89189 -1.586667,-0.93321 z m -2.155694,-1.28774 1.677382,1.00158 -0.577269,0.9046 -1.683979,-0.99045 z m -1.914887,-1.14465 1.43658,0.8585 -0.585516,0.91892 -1.443178,-0.85056 z m -1.964368,-1.17328 1.484409,0.88711 -0.593762,0.93006 -1.489357,-0.8776 z m -1.580071,-0.94272 1.101765,0.65655 -0.602011,0.94277 -1.10671,-0.65183 z m -1.820876,-1.08742 1.34092,0.80125 -0.606963,0.95071 -1.347511,-0.79333 z m -2.728012,-0.28617 -1.077022,-0.63434 0.625102,-0.97931 1.072071,0.64069 z m 1.100113,-0.68679 1.149592,0.68679 -0.615204,0.96183 -1.154544,-0.67886 z m -2.635652,-1.57391 0.603657,0.36097 -0.626747,0.98247 -0.605312,-0.35781 z m -1.486058,-0.20009 0.450278,-0.41821 0.557479,0.33213 -0.6317,0.98883 -0.559123,-0.32898 z m -4.727019,-3.51032 4.293238,2.56278 -0.453551,0.42135 -0.18472,0.57707 -4.308084,-2.53731 z m -8.221981,-3.43397 -4.895249,-2.88229 0.550881,-1.19076 5.027196,3.0031 z m 2.61256,0.0825 3.681335,2.19869 -0.661383,1.03655 -3.696183,-2.17805 z m 14.281668,4.51662 -0.306795,0.48013 -0.598714,-0.36908 0.313385,-0.49126 z m -28.373658,-14.8742 5.868363,3.56435 -0.6185,1.34019 -6.067938,-3.62316 z m -1.71037,2.67881 6.2807,3.69788 -0.618505,1.33862 -6.480271,-3.75511 z m 25.455971,16.67385 0.199589,0.11629 -0.47336,0.74082 z m 0.780139,2.58504 0.295246,-0.46107 1.085269,0.62006 -0.282013,0.44209 z m 2.765949,1.51348 -0.663038,-0.36099 -0.514592,-0.283 0.277105,-0.43398 1.164441,0.66454 z M 27.390645,161.87905 c -0.01637,-0.10636 -0.07588,-0.20685 -0.179766,-0.26859 -0.18804,-0.11132 -0.433774,-0.0541 -0.547581,0.12573 -0.115482,0.18116 -0.05774,0.4182 0.130305,0.52942 0.102259,0.0604 0.222638,0.0667 0.329889,0.0315 l -1.434931,2.24799 -1.951172,-1.15579 c -0.504699,-0.29878 -0.661388,-0.93641 -0.351302,-1.42289 l 6.094325,-9.54519 c 0.310067,-0.48648 0.971463,-0.63907 1.476161,-0.33844 l 1.949528,1.15579 -1.279892,2.00635 c -0.01824,-0.10636 -0.07751,-0.20685 -0.181449,-0.26724 -0.186358,-0.1113 -0.432138,-0.0554 -0.547581,0.12573 -0.115435,0.18116 -0.05606,0.4164 0.130305,0.52781 0.103882,0.0622 0.222684,0.0685 0.328206,0.036 l -0.539334,0.84579 c -0.01823,-0.10636 -0.07751,-0.20505 -0.179765,-0.26724 -0.188041,-0.11132 -0.433775,-0.0541 -0.549232,0.12573 -0.115435,0.18116 -0.05606,0.41821 0.131945,0.52943 0.102259,0.0604 0.221001,0.0667 0.328205,0.0361 l -0.631699,0.98724 c -0.01823,-0.10634 -0.07751,-0.20504 -0.179764,-0.26723 -0.188042,-0.11131 -0.433776,-0.0541 -0.547587,0.12573 -0.115436,0.18116 -0.05774,0.41821 0.130305,0.52938 0.102259,0.0604 0.221003,0.0667 0.328208,0.0361 l -0.536039,0.83943 c -0.01824,-0.10636 -0.07751,-0.20685 -0.179765,-0.26724 -0.188041,-0.11132 -0.433776,-0.0554 -0.549232,0.12573 -0.115435,0.18116 -0.05606,0.4164 0.130306,0.52781 0.103882,0.0622 0.222685,0.0685 0.32989,0.036 l -0.634997,0.99518 c -0.01824,-0.10636 -0.07751,-0.20685 -0.181448,-0.26724 -0.186357,-0.11132 -0.432138,-0.0554 -0.547581,0.12573 -0.115482,0.18116 -0.05606,0.4164 0.130305,0.52781 0.103941,0.0622 0.222685,0.0685 0.328207,0.036 z m 99.711075,46.60035 c -1.12155,1.95072 -3.10077,2.44035 -6.01023,0.71543 L 63.631553,173.33578 c 0.376034,-1.70744 1.070425,-3.55958 2.340419,-5.17959 3.715971,-4.74078 9.506816,-5.79643 14.019421,-2.4817 5.038743,3.70109 2.371759,-4.33379 -3.254154,-7.11117 -7.737072,-3.82032 -16.851345,-4.4785 -21.645985,-7.99035 -5.119568,-3.75038 -5.066787,-8.33852 -13.867684,-12.93465 -14.100235,-7.36398 -28.380258,11.32415 -28.380258,11.32415 0,0 -10.8724714,20.71197 2.302486,29.52427 8.225276,5.50071 12.449246,3.38788 18.228543,6.10323 8.086735,3.79649 15.630835,16.73114 27.892055,20.32726 7.146605,2.09378 7.103722,-3.24159 3.941931,-4.87115 -6.315336,-3.25435 -13.158466,-7.11595 -10.35788,-13.8488 0.839516,-2.01744 2.073226,-3.49915 3.33827,-4.58342 l 59.226293,33.34298 c 2.90778,1.72495 5.15749,3.32428 3.92379,6.49278 l 18.92785,2.95065 2.33548,-3.65814 -15.50053,-12.26054"
       style="fill:#ffffff;fill-opacity:1;fill-rule:nonzero;stroke:none;stroke-width:0.16193"
       id="path66" />
    <path
       d="m 183.88355,163.39315 -1.94953,1.15579 -1.43491,-2.24799 c 0.10723,0.0315 0.22594,0.027 0.32983,-0.0315 0.18636,-0.1113 0.24573,-0.34835 0.13026,-0.52942 -0.11541,-0.17981 -0.36122,-0.23705 -0.54759,-0.12573 -0.10396,0.0622 -0.1633,0.16223 -0.18144,0.26859 l -0.54594,-0.8553 c 0.10723,0.0316 0.22596,0.0271 0.32822,-0.036 0.18802,-0.11132 0.24573,-0.34656 0.13026,-0.52781 -0.11378,-0.18116 -0.35959,-0.23704 -0.54759,-0.12573 -0.10221,0.0604 -0.16162,0.16043 -0.17976,0.26724 l -0.635,-0.99518 c 0.10723,0.0315 0.22595,0.027 0.3282,-0.0361 0.18804,-0.11131 0.24573,-0.34655 0.13027,-0.5278 -0.11541,-0.18116 -0.36124,-0.23704 -0.5476,-0.12573 -0.10396,0.0604 -0.16331,0.16043 -0.17976,0.26724 l -0.53604,-0.83944 c 0.10548,0.0315 0.22432,0.0271 0.32821,-0.036 0.18635,-0.11132 0.24573,-0.34836 0.13026,-0.52938 -0.11541,-0.17981 -0.36121,-0.23705 -0.54757,-0.12573 -0.10385,0.0622 -0.16331,0.16043 -0.18145,0.26723 l -0.63005,-0.98724 c 0.10724,0.0315 0.22597,0.027 0.3282,-0.0361 0.18805,-0.11132 0.24573,-0.34835 0.13027,-0.52943 -0.11541,-0.17981 -0.36122,-0.23704 -0.5476,-0.12573 -0.10396,0.0622 -0.16329,0.16044 -0.17976,0.26724 l -0.54077,-0.84581 c 0.10724,0.0315 0.22596,0.027 0.3282,-0.036 0.18805,-0.11132 0.24574,-0.34655 0.13026,-0.52781 -0.11541,-0.18116 -0.35957,-0.23704 -0.54757,-0.12573 -0.10222,0.0604 -0.16164,0.16044 -0.17978,0.26724 l -1.28154,-2.00635 1.95117,-1.15579 c 0.50471,-0.30059 1.16445,-0.14782 1.47617,0.33844 l 6.09267,9.54519 c 0.31171,0.48648 0.1534,1.12397 -0.35131,1.42289 z m -5.17399,8.44344 c -4.24542,2.97611 -8.09992,1.96183 -13.11229,5.3163 -5.62757,3.76467 -6.72932,7.7169 -8.61287,7.84249 -1.70211,0.11453 -2.15075,-1.47849 -2.6175,-2.20982 -0.67294,-1.05246 -1.42669,-1.94434 -2.20848,-2.70585 l 2.00725,-1.13033 -0.48985,-1.52938 5.00906,-2.8617 0.79168,1.24007 1.19908,-0.21 0.73396,-0.93637 -0.77191,-1.20825 3.72753,-2.12875 0.73396,1.14943 1.19741,-0.20999 0.73561,-0.93642 -0.71415,-1.11762 4.56043,-2.60252 0.44036,0.9539 1.21722,-0.054 0.85601,-0.83466 -0.54923,-1.18761 6.69634,-3.82347 2.06496,3.23524 1.02095,-0.6073 c -0.061,2.29409 -1.13969,4.60887 -3.91553,6.55637 z m -26.92389,6.66286 0.61026,-0.3497 0.30843,0.4817 -0.6185,0.33844 z m -0.70098,-1.09856 0.60862,-0.35286 0.62345,0.97769 -0.61025,0.34836 z m -0.58715,2.43717 -0.2837,-0.44209 1.08691,-0.62004 0.29525,0.46105 z m -0.97805,-1.53095 1.08196,-0.6264 0.62015,0.97137 -1.08693,0.62001 z m -0.028,2.0826 -0.66139,0.36097 -0.26387,-0.41324 1.16279,-0.66453 0.27709,0.43397 z m -2.48061,1.45151 -0.28867,-0.45151 1.35907,-0.7758 0.29193,0.45944 0.21772,-0.12258 v 0 z m -1.60647,0.90302 -0.28205,-0.44209 1.11496,-0.63597 0.28696,0.44841 0.31171,-0.17666 z m -0.95662,-1.49919 1.11002,-0.64389 0.60036,0.94119 -1.11497,0.63592 z m -1.03908,2.62316 -0.27379,-0.43082 1.50255,-0.85849 0.28039,0.44029 0.0825,-0.0459 z m -0.94179,-1.47534 1.49763,-0.868 0.59375,0.93001 -1.50254,0.85848 z m -1.29143,2.73289 0.28697,-0.16223 -0.26718,-0.41822 1.4547,-0.82987 0.27217,0.42587 z m -0.63993,-1.61365 1.44812,-0.83943 0.58716,0.91734 -1.45473,0.83146 z m -1.4234,2.77579 0.15999,-0.0906 -0.25896,-0.4056 1.69717,-0.96975 0.26555,0.4164 z m -0.75044,-1.51667 1.69057,-0.97932 0.57892,0.90618 -1.69717,0.9698 z m -1.18259,2.6041 -0.25068,-0.39252 1.59987,-0.91411 0.25727,0.40245 z m -0.89394,-1.40063 1.59328,-0.92366 0.57066,0.89347 -1.6015,0.91252 z m -1.82252,2.93002 0.28202,-0.1591 -0.24084,-0.37989 1.93964,-1.10649 0.24904,0.39116 z m -0.59376,-1.53097 1.93302,-1.11923 0.56078,0.88074 -1.93962,1.1065 z m -1.45969,2.68676 -0.23417,-0.36548 1.84397,-1.05246 0.23914,0.37674 z m -0.85763,-1.34341 1.83571,-1.06354 0.55087,0.86486 -1.8423,1.05245 z m -1.80109,2.36247 1.93963,-1.10807 0.23254,0.36413 -1.94788,1.0954 z m -0.6152,-0.96342 1.93302,-1.11924 0.54263,0.85057 -1.93963,1.10811 z m -1.98252,2.90455 -0.21441,-0.33529 2.32723,-1.32905 0.22264,0.34971 z m -0.81808,-1.28138 2.31899,-1.34335 0.53273,0.83623 -2.32722,1.32906 z m -2.10291,2.92528 -0.20286,-0.31816 2.42452,-1.38472 0.21278,0.33212 z m -0.79499,-1.24642 2.41466,-1.39905 0.52282,0.81875 -2.42453,1.38471 z m -2.6076,2.75511 2.71481,-1.55006 0.20124,0.31637 -2.72473,1.53415 z m -0.58057,-0.90775 2.70492,-1.56754 0.5113,0.80125 -2.71483,1.55007 z m -2.44103,3.01586 -0.17977,-0.27985 2.71647,-1.55006 0.18805,0.29562 z m -0.74717,-1.16854 2.70493,-1.56755 0.49976,0.7822 -2.71647,1.55006 z m -2.7082,3.11447 -0.16659,-0.26093 2.95726,-1.68837 0.17813,0.27805 z m -0.72078,-1.12717 2.94574,-1.70749 0.48656,0.76151 -2.95729,1.68837 z m -0.0791,-0.12579 -0.53111,-0.82988 2.9342,-1.7281 0.54262,0.85212 z m -1.09188,-1.71062 2.92099,-1.7456 0.49481,0.77421 -2.93419,1.72654 z m -0.59375,-0.92844 2.90779,-1.7663 0.52779,0.82511 -2.92099,1.74561 z m -0.55418,-0.86962 2.89623,-1.78377 0.48658,0.76308 -2.9078,1.76628 z m -3.1486,2.9475 -0.46015,-0.7234 3.13376,-1.93158 0.47337,0.7424 z m -0.70923,-1.1129 3.18324,-1.98567 -0.061,0.036 0.18145,0.28302 -3.1354,1.93162 z m 6.89263,-4.3004 -0.4107,0.25597 0.19295,0.30059 -2.89624,1.78536 -0.18309,-0.28437 z m 6.04977,-3.30523 -2.65873,1.63912 -0.20454,-0.32266 -0.47336,0.29561 0.20285,0.31952 -2.65874,1.6375 -0.19463,-0.30374 5.7727,-3.60252 z m 0.59212,0.92686 -2.67028,1.62163 -0.5014,-0.78539 2.65874,-1.63906 z m 2.13424,-3.09692 -0.10069,0.0623 0.22433,0.35285 -2.37505,1.46259 -0.21606,-0.33843 z m 0.72572,1.35929 -2.38329,1.44669 -0.5146,-0.80442 2.37506,-1.46263 z m 1.91819,-3.0095 0.23418,0.36729 -2.27938,1.40536 -0.2276,-0.35602 z m 0.84777,1.32906 -2.28929,1.38951 -0.52449,-0.82195 2.27938,-1.40536 z m 3.78854,-4.22251 0.25069,0.3925 -1.80438,1.11284 -0.2441,-0.38305 -0.47335,0.29429 0.24245,0.38169 -1.89839,1.17012 -0.2375,-0.37044 z m 2.5037,-1.56278 -0.13688,0.086 0.25897,0.40693 -1.90004,1.17013 -0.25238,-0.39568 -0.34967,0.21766 z m 0.76366,1.4976 -1.90665,1.15895 -0.55583,-0.86964 1.90004,-1.17006 z m 1.13309,-2.68043 0.26719,0.41819 -1.56687,0.965 -0.26225,-0.40875 z m 2.1293,-1.32907 0.27379,0.42947 -1.66089,1.02541 -0.26884,-0.42136 -0.18308,0.11453 z m 0.93352,1.46106 -1.66913,1.01429 -0.57233,-0.89667 1.66089,-1.02384 z m 4.67754,-4.96178 -0.21604,0.1352 0.29356,0.45944 -1.09351,0.67251 -0.28865,-0.45309 -0.47337,0.29563 0.28698,0.45151 -1.47122,0.90622 -0.28206,-0.44209 -0.47337,0.29428 0.28038,0.44028 -1.42503,0.87756 -0.27542,-0.43263 z m 0.75705,1.65975 -1.0968,0.66612 -0.59708,-0.93322 1.09353,-0.67408 z m 0.88406,-2.68359 v 0 l -0.0593,0.036 0.30018,0.47057 -1.32936,0.81875 -0.29525,-0.46264 z m 26.00519,-13.65168 -0.55582,-1.20189 5.67704,-3.49756 0.73066,1.14465 z m 0.0808,5.55322 0.54427,1.17963 -4.57691,2.6136 -0.67954,-1.06354 z m -0.67293,-1.45629 0.61024,1.32271 -4.72866,2.73926 -0.7587,-1.19077 z m -5.64077,1.67724 5.02885,-3.0031 0.54925,1.19076 -4.89362,2.88229 z m -0.34307,3.63591 0.67128,1.05084 -3.72751,2.12875 -0.65643,-1.02862 z m -0.83127,-1.30049 0.75211,1.17648 -3.71267,2.15102 -0.73397,-1.15102 z m 5.5286,-6.79639 0.61191,1.32429 -5.04535,3.01271 -0.75539,-1.1844 z m -5.26801,3.02857 -0.67952,-1.06358 5.33727,-3.28932 0.54924,1.18918 z m -4.69568,4.78373 3.68135,-2.19869 0.67458,1.05719 -3.69619,2.17805 z m -0.39089,3.56272 0.64819,1.01592 -4.97608,2.84096 -0.36448,-1.13831 z m -0.80654,-1.26227 0.72738,1.13831 -4.65941,2.69788 -0.40904,-1.27981 z m 4.05245,-5.79323 0.74716,1.17007 -3.68135,2.1987 -0.73066,-1.14308 z m -3.74401,2.10171 -0.65645,-1.02862 3.64999,-2.24957 0.67129,1.05087 z m -4.88042,5.52775 -0.45191,-0.42136 4.2916,-2.56277 0.65313,1.02384 -4.30808,2.5373 z m -0.20449,2.65971 0.27542,0.85691 -0.47336,-0.74082 z m -0.97806,-1.10648 0.52614,-0.31006 0.4074,1.27341 -0.23418,0.1352 z m -1.08692,0.64069 0.60531,-0.35782 0.69931,1.09539 -0.60861,0.35287 z m -1.55863,0.9173 1.07702,-0.63433 0.69438,1.08584 -1.08197,0.62798 z m -0.87415,2.15422 1.15948,-0.67094 0.61356,0.96183 -1.1628,0.66458 z m -0.48326,0.27985 0.60861,0.95227 -1.35906,0.77581 -0.60201,-0.94435 z m -2.10457,-0.39613 1.34587,-0.79171 0.67954,1.06359 -1.35247,0.78378 z m -1.58667,0.93483 1.10506,-0.65181 0.6713,1.05245 -1.11002,0.64385 z m -1.97261,1.16053 1.491,-0.87756 0.6647,1.04133 -1.49762,0.86805 z m -1.92313,1.13357 1.44318,-0.84899 0.65479,1.02704 -1.44812,0.83939 z m -2.16395,1.27341 1.68234,-0.99044 0.64819,1.01429 -1.69057,0.9793 z m -2.06828,1.2178 1.58667,-0.9332 0.6383,0.99837 -1.59326,0.9237 z m -2.40472,1.4165 1.92477,-1.13191 0.6284,0.98404 -1.93303,1.11925 z m -2.30744,1.3593 1.82748,-1.0763 0.6185,0.96818 -1.83571,1.06359 z m -2.40474,1.41649 1.92312,-1.13353 0.60862,0.95232 -1.93303,1.11921 z m -2.78904,1.64226 2.30907,-1.35925 0.59707,0.93479 -2.31898,1.3434 z m -2.88472,1.69953 2.40475,-1.41651 0.58388,0.91572 -2.41464,1.39901 z m -3.17497,1.86804 2.69337,-1.58505 0.57233,0.89505 -2.70492,1.56756 z m -0.47995,0.28299 0.55746,0.87442 -2.70493,1.56754 -0.54593,-0.85533 z m -0.58554,-0.91572 0.50635,0.79171 -2.69337,1.58666 -0.4948,-0.77742 z m 3.08263,-2.0127 -2.68348,1.60252 -0.54428,-0.85371 2.67029,-1.6216 z m 2.87315,-1.71699 -2.39483,1.43083 -0.55914,-0.87598 2.38331,-1.44831 z m 2.77916,-1.65976 -2.2992,1.37359 -0.57396,-0.89824 2.28928,-1.38946 z m 1.72027,-2.48642 -1.90665,1.15894 -0.53604,-0.84101 1.8984,-1.17007 z m 0.47664,-0.28933 -0.54591,-0.85529 1.80437,-1.1129 0.55419,0.86648 z m 2.49712,-0.0271 -1.82087,1.08581 -0.59707,-0.9348 1.81263,-1.10171 z m 2.39484,-1.43083 -1.91653,1.14466 -0.60696,-0.95389 1.90663,-1.15737 z m -0.21935,-1.38156 -0.56408,-0.88391 1.56687,-0.96503 0.57067,0.89346 z m 2.27938,0.15097 -1.58007,0.94434 -0.62015,-0.97138 1.57348,-0.95548 z m 2.15569,-1.28775 -1.67737,1.00158 -0.62841,-0.98572 1.66914,-1.01428 z m 1.19082,-2.28138 -1.42997,0.86962 -0.58221,-0.91095 1.42503,-0.8776 z m 0.47667,-0.28932 -0.58881,-0.92209 1.47286,-0.90617 0.59376,0.93006 z m 2.21176,0.25282 -1.48439,0.88711 -0.64821,-1.01592 1.47782,-0.89666 z m 1.58173,-0.94435 -1.10177,0.65818 -0.65808,-1.03019 1.09682,-0.66616 z m 1.06878,-2.26232 -1.33433,0.81081 -0.602,-0.94434 1.32937,-0.81874 z m -0.21114,-1.36882 -0.27216,-0.42452 0.49481,-0.31635 0.63334,-0.40693 0.28371,0.44524 z m 1.83243,0.38306 -1.14466,0.69634 -0.60861,-0.95547 1.13969,-0.7027 z m -0.21938,-1.37837 -0.28864,-0.45308 1.05228,-0.67409 0.3002,0.47219 z m 1.76481,0.44029 -1.06879,0.64867 -0.61521,-0.96503 1.06219,-0.65502 z m -0.22596,-1.38787 -0.30511,-0.48013 0.59046,-0.3799 0.31338,0.49125 z m 1.30298,0.73289 -0.60037,0.36548 -0.62345,-0.97458 0.59872,-0.36864 z m 0.67623,-0.41009 -0.19959,0.12076 -0.47997,-0.75037 z m 0.87909,-0.53416 -0.89229,-0.82672 4.87052,-3.00154 0.64983,1.01587 z m 0.11214,0.10504 4.59507,-2.79171 0.72077,1.12879 -4.32458,2.58342 z m -0.33811,1.88553 0.55583,-0.33213 0.4519,0.4182 0.1831,0.5739 -0.55913,0.32898 z m -1.08362,0.64704 0.60366,-0.36097 0.63005,0.98566 -0.60532,0.35783 z m -1.55203,0.92686 1.07372,-0.64069 0.62509,0.97931 -1.077,0.63434 z m 0.21936,1.37995 0.68778,1.0763 -1.15949,0.67087 -0.68118,-1.06836 z m -1.84726,-0.40695 1.14958,-0.68679 0.61851,0.96976 -1.15288,0.67886 z m -1.82088,1.08744 1.34256,-0.80127 0.61192,0.95863 -1.34587,0.79333 z m 1.26175,-0.92529 -1.34092,0.79968 -0.66469,-1.04132 1.33433,-0.81082 z m 1.62955,-0.97295 -1.1496,0.68679 -0.67458,-1.05565 1.14465,-0.69473 z m 1.55203,-0.92686 -1.07373,0.64069 -0.68117,-1.06836 1.06878,-0.64863 z m 0.86755,-2.02064 0.23254,-0.14015 0.98466,0.91414 -0.52282,0.31321 z m 0.21441,1.37359 -0.60365,0.36097 -0.68778,-1.0795 0.60035,-0.36548 z m -7.10537,4.41487 1.10176,-0.65656 0.60532,0.9475 -1.10507,0.65183 z m -1.96438,1.17327 1.48441,-0.88711 0.60038,0.93956 -1.49101,0.87761 z m -1.91653,1.14466 1.43823,-0.8585 0.59211,0.92686 -1.44317,0.85056 z m -0.71746,-1.12556 1.42997,-0.86962 0.64655,1.01271 -1.43823,0.85849 z m -1.43824,2.41329 1.6774,-1.00156 0.58386,0.91572 -1.68234,0.99044 z m -2.05837,1.23051 1.58007,-0.94434 0.57563,0.90302 -1.58666,0.93321 z m -2.3965,1.43083 1.91655,-1.14466 0.56901,0.88874 -1.92477,1.13353 z m -2.29919,1.37202 1.82088,-1.08585 0.55912,0.87439 -1.82746,1.0763 z m -2.39484,1.43081 1.91654,-1.14465 0.54923,0.8617 -1.92313,1.13352 z m -0.66469,-1.04132 1.90664,-1.15894 0.59542,0.9316 -1.91655,1.14465 z m -2.11281,2.70108 2.29918,-1.37359 0.541,0.84736 -2.30908,1.35931 z m -2.83521,2.81554 -2.69338,1.58505 -0.508,-0.79492 2.68348,-1.60251 z m -0.0397,-1.09855 2.39483,-1.43083 0.52944,0.82988 -2.40309,1.41654 z m -7.01137,2.69789 -0.48821,-0.76625 2.65874,-1.63753 0.49975,0.78219 z m 2.74947,-1.49757 0.54262,0.85052 -2.68183,1.60094 -0.53108,-0.82988 z m 52.95053,-30.45271 -0.61852,-1.34019 5.86837,-3.56435 0.81807,1.28138 z m 0.61684,1.33862 -0.55583,-1.20351 6.08607,-3.63429 0.73398,1.14943 z m 7.24061,-2.15894 0.73067,1.14466 -6.6782,3.81235 -0.55088,-1.19239 z m -6.56108,3.63109 -0.61686,-1.33862 6.28071,-3.69788 0.81807,1.28139 z m -37.23898,-4.07463 c -0.21936,-0.0315 -0.3909,-0.19693 -0.41895,-0.40874 -0.028,-0.21135 0.0957,-0.41505 0.30021,-0.49603 2.62246,-1.03975 5.37356,-1.80919 8.05539,-2.5612 4.36417,-1.22253 8.48753,-2.37674 11.49593,-4.58021 2.3833,-1.74561 3.78359,-3.60725 5.1377,-5.40694 1.86706,-2.48166 3.62855,-4.82343 8.34073,-7.28445 1.67243,-0.8744 3.43228,-1.75993 5.05524,-1.32433 1.07208,0.28616 1.64934,1.74245 0.90385,2.68359 -0.78014,0.98567 -7.65131,6.05079 -0.32494,11.2749 l -0.1468,0.0874 1.90499,2.98252 -5.65889,3.48643 -0.4206,-0.9078 -1.27,-0.0636 -0.80322,0.95228 0.55911,1.20987 -5.35375,3.3004 -0.71583,-1.1224 -1.26834,0.10004 -0.66468,1.0461 0.73726,1.15417 -3.65001,2.24799 -0.77683,-1.21459 -1.26835,0.1001 -0.66303,1.04611 0.79498,1.24798 -4.90351,3.02065 -1.20402,-1.11762 -2.02538,1.2639 c -0.39091,-1.37679 -0.97146,-2.80604 -1.83904,-4.16373 -0.24244,-0.3799 -0.50304,-0.7488 -0.77518,-1.09697 -2.39814,-3.05719 -5.64075,-4.99514 -9.13406,-5.4562 z m 59.84975,-11.97759 c 0,0 -14.28166,-18.68813 -28.38025,-11.32415 -8.80257,4.59612 -8.74813,9.18427 -13.86769,12.93465 -4.79464,3.51185 -13.91057,4.17003 -21.64764,7.99035 -5.62426,2.77737 -8.29125,10.81224 -3.25251,7.11117 4.51095,-3.31473 10.30181,-2.25908 14.01777,2.4817 1.27,1.62001 1.96602,3.47215 2.34042,5.17959 l -38.11303,23.78664 0.93188,0.58188 0.17318,-0.10808 0.1682,0.26229 -0.0479,0.0271 1.20897,0.75515 -0.0676,-0.10503 3.14695,-1.91253 0.51129,0.80126 -2.83027,1.69158 0.14018,0.0875 2.76925,-1.65498 0.47995,0.75354 -2.41463,1.4213 0.14018,0.0892 2.35527,-1.3863 0.52779,0.8283 -1.95776,1.13353 0.14018,0.0892 1.89673,-1.09855 0.47337,0.73929 -1.53719,0.87755 0.14191,0.0892 1.4745,-0.84099 0.16332,0.25777 -1.35247,0.76151 0.95663,0.59775 35.96393,-20.24775 c 1.26669,1.08425 2.50041,2.56596 3.33992,4.5834 2.80059,6.73285 -4.04419,10.59445 -10.35952,13.8488 -3.16014,1.62956 -3.20303,6.96493 3.94193,4.87115 12.26122,-3.59612 19.80532,-16.53076 27.89204,-20.32724 5.78095,-2.71537 10.00492,-0.60254 18.22854,-6.10325 13.17497,-8.81229 2.30415,-29.52426 2.30415,-29.52426"
       style="fill:#ffffff;fill-opacity:1;fill-rule:nonzero;stroke:none;stroke-width:0.16193"
       id="path68" />
    <path
       d="m 167.37692,154.91948 c 0.36121,0.56597 0.17813,1.3068 -0.40905,1.65498 -0.58715,0.34835 -1.35575,0.17169 -1.71695,-0.39433 -0.36123,-0.56597 -0.17814,-1.3068 0.40739,-1.65497 0.58717,-0.34836 1.35576,-0.1717 1.71863,0.39432 z m -1.98912,-0.81875 c -0.82962,0.49283 -1.08856,1.54051 -0.57726,2.34177 0.50965,0.79969 1.59821,1.0493 2.42784,0.55643 0.82961,-0.49284 1.08856,-1.54052 0.57891,-2.34016 -0.51129,-0.79968 -1.59821,-1.0493 -2.42949,-0.55804"
       style="fill:#ffffff;fill-opacity:1;fill-rule:nonzero;stroke:none;stroke-width:0.16193"
       id="path70" />
    <path
       d="m 164.38831,146.04044 c 0.58552,-0.34836 1.3541,-0.1717 1.71531,0.39432 0.36286,0.56593 0.17977,1.3068 -0.40739,1.65498 -0.58718,0.34835 -1.35577,0.17169 -1.71698,-0.39433 -0.36121,-0.56597 -0.17813,-1.3068 0.40905,-1.65497 z m 1.57842,2.47372 c 0.82962,-0.49283 1.08856,-1.54051 0.57727,-2.3402 -0.50966,-0.79968 -1.59657,-1.04925 -2.42783,-0.558 -0.82962,0.49284 -1.08856,1.54052 -0.57727,2.34178 0.50963,0.79964 1.59821,1.04926 2.42783,0.55642"
       style="fill:#ffffff;fill-opacity:1;fill-rule:nonzero;stroke:none;stroke-width:0.16193"
       id="path72" />
    <path
       d="m 165.72427,152.35355 c -0.58716,0.34835 -1.35576,0.1717 -1.71696,-0.39432 -0.36121,-0.56598 -0.17813,-1.30681 0.40903,-1.65498 0.58718,-0.34836 1.35578,-0.1717 1.71698,0.39432 0.36121,0.56593 0.17813,1.3068 -0.40905,1.65498 z m -1.58007,-2.47373 c -0.82962,0.49284 -1.08856,1.54052 -0.57725,2.34178 0.51128,0.79963 1.59821,1.04925 2.42783,0.55642 0.82961,-0.49284 1.08856,-1.54051 0.57891,-2.3402 -0.5113,-0.79968 -1.59822,-1.04925 -2.42949,-0.558"
       style="fill:#ffffff;fill-opacity:1;fill-rule:nonzero;stroke:none;stroke-width:0.16193"
       id="path74" />
    <path
       d="m 88.368412,212.0777 -0.196271,-0.3069 0.389267,0.60736 z"
       style="fill:#ffffff;fill-opacity:1;fill-rule:nonzero;stroke:none;stroke-width:0.16193"
       id="path76" />
    <path
       d="m 93.713936,211.8456 -0.089,-0.13834 4.169533,-2.38153 0.10553,0.1636 z m -0.562427,-0.88074 4.1547,-2.40698 0.40903,0.64387 -4.169537,2.37991 z m -0.07922,-0.12388 -0.440361,-0.69 4.134901,-2.43555 0.4585,0.71857 z m -3.552678,3.03969 -0.377717,-0.593 3.526294,-2.04285 0.392541,0.61523 z m -0.879101,-1.37835 3.509808,-2.06832 0.438722,0.68679 -3.526296,2.0429 z m -3.630206,8.16046 -17.151523,2.67405 -1.51905,-2.37991 13.986438,-11.06506 c 0.950022,1.01591 2.784092,2.07472 5.850222,0.6073 l 0.130305,0.20189 -16.086048,9.91244 c -0.183085,-0.018 -0.37108,0.004 -0.539334,0.10632 -0.405723,0.2402 -0.532736,0.75359 -0.282013,1.14624 0.249053,0.39116 0.781789,0.51351 1.189175,0.27355 0.405725,-0.24156 0.532738,-0.75516 0.283699,-1.14781 -0.1072,-0.1654 -0.268831,-0.27041 -0.443687,-0.33214 l 15.957404,-9.83454 0.376035,0.58981 -14.223941,8.64216 c -0.163307,-0.004 -0.328206,0.0181 -0.478308,0.10809 -0.405722,0.24154 -0.532736,0.75514 -0.283696,1.14622 0.250689,0.39252 0.783435,0.51511 1.190828,0.27354 0.405722,-0.24154 0.532736,-0.75515 0.282061,-1.14622 -0.112164,-0.17802 -0.288654,-0.29249 -0.479963,-0.34972 l 14.0722,-8.54996 0.395858,0.62001 -12.299155,7.34491 c -0.169901,-0.009 -0.343074,0.0136 -0.499754,0.10632 -0.407405,0.24155 -0.534386,0.75516 -0.283697,1.14786 0.25069,0.39117 0.783437,0.51352 1.189173,0.27174 0.407407,-0.2402 0.534388,-0.75354 0.283698,-1.14622 -0.110518,-0.1735 -0.278742,-0.28302 -0.465101,-0.34341 l 12.154011,-7.25746 0.384311,0.60095 -10.305101,6.06827 c -0.194632,-0.0271 -0.39913,-0.002 -0.578919,0.10503 -0.407407,0.24018 -0.534388,0.75352 -0.283698,1.14622 0.25069,0.39117 0.78344,0.51353 1.189178,0.27355 0.407405,-0.24155 0.534386,-0.75515 0.283697,-1.14786 -0.100611,-0.15593 -0.25069,-0.25597 -0.415634,-0.31952 l 10.189644,-5.9999 0.418953,0.65499 -8.251668,4.78057 c -0.240779,-0.0874 -0.516243,-0.0824 -0.753748,0.0572 -0.405722,0.24154 -0.532743,0.75515 -0.282061,1.14623 0.249054,0.39252 0.781785,0.5151 1.189178,0.27354 0.405722,-0.24155 0.532736,-0.75516 0.283696,-1.14628 -0.07093,-0.10948 -0.164943,-0.19243 -0.26883,-0.25777 l 8.162601,-4.72965 0.374397,0.58824 -6.229566,3.55636 c -0.262239,-0.13203 -0.58057,-0.14464 -0.851065,0.0136 -0.405722,0.24154 -0.532737,0.75515 -0.283697,1.14781 0.25069,0.39116 0.783436,0.51352 1.190823,0.27175 0.405723,-0.2402 0.532738,-0.7536 0.282015,-1.14629 -0.05114,-0.0811 -0.120385,-0.1433 -0.192949,-0.20054 l 6.163597,-3.51983 0.09071,0.14287 c -2.09797,1.29413 -4.367465,3.04132 -3.811637,6.01901 z m 5.690234,-12.90761 -0.186358,0.11628 0.108835,0.17036 -3.46692,2.13666 -0.09729,-0.15096 z m 4.481264,-2.52302 -4.08377,2.51668 -0.110517,-0.17351 4.068932,-2.53888 z m 0.491517,0.76944 -4.100281,2.49127 -0.395847,-0.62007 4.083775,-2.51662 z m -7.501224,5.7694 3.498267,-2.089 0.400807,0.62798 -3.509803,2.06837 h -0.0016 l -0.257282,-0.40379 z m 3.003457,-2.86479 0.415631,0.65181 -3.498254,2.089 v 0 l -0.399131,-0.62641 z m -3.940286,1.39585 3.466923,-2.13674 0.394174,0.61686 -3.481764,2.11448 z m 8.954285,-3.49121 -4.12005,2.46102 -0.41727,-0.65503 4.100265,-2.49121 z m 0.07922,0.12388 0.418948,0.6566 -4.134898,2.4356 -0.4041,-0.63117 z m 4.306429,1.04931 -2.289281,1.28931 0.10065,-0.0572 -0.10726,-0.16674 2.079821,-1.1876 -0.15007,-0.0842 -2.008901,1.1478 -0.41232,-0.64704 1.632861,-0.94434 -0.15009,-0.0842 -1.561921,0.90464 -0.46015,-0.72181 1.14795,-0.67567 -0.14844,-0.0824 -1.07867,0.63433 -0.42059,-0.65981 0.70592,-0.42135 -0.14844,-0.0842 -0.63666,0.3817 -0.440359,-0.68838 0.25565,-0.15592 -0.146812,-0.0824 -0.188045,0.11453 -0.219361,-0.34339 -1.716973,-0.96661 -7.682638,4.79485 c -2.909442,1.72493 -4.888653,1.23529 -6.010206,-0.71541 l -15.500533,12.26056 2.333822,3.65814 18.927869,-2.95065 c -1.23371,-3.1685 1.015994,-4.76782 3.925436,-6.49279 l -0.608607,-0.95228 3.541144,-2.02063 0.08741,0.13654 0.141764,-0.0794 -3.696172,2.07945 0.534388,0.83623 11.377174,-6.40532 -1.0094,-0.56754"
       style="fill:#ffffff;fill-opacity:1;fill-rule:nonzero;stroke:none;stroke-width:0.16193"
       id="path78" />
    <path
       d="m 156.50115,133.96109 c 9.12582,-5.42443 17.81125,-11.44024 25.02714,-19.65317 l -8.79759,1.0334 c 5.7496,-3.91731 12.19028,-13.45294 15.94584,-19.056997 l -9.87132,4.718517 c 7.06084,-8.97124 11.02587,-19.071267 11.61633,-33.028155 -3.84627,17.824879 -8.5535,24.777105 -20.07911,38.675155 l 9.99997,-3.86322 c -6.48688,6.67241 -9.38971,10.3369 -17.96136,15.25735 l 9.07965,-0.0874 c -9.77732,6.40212 -13.61535,8.77251 -23.96332,13.34799 l 9.00377,2.65655"
       style="fill:#ffffff;fill-opacity:1;fill-rule:nonzero;stroke:none;stroke-width:0.16193"
       id="path80" />
    <path
       d="m 156.53743,116.20459 c 4.31799,-6.35764 8.15271,-12.97759 10.2985,-20.618193 l -5.52365,3.336995 c 2.55814,-4.340148 3.75885,-12.627793 4.44499,-17.489426 l -5.04535,6.11278 c 1.79449,-8.098447 1.16444,-16.01726 -2.96222,-25.487721 3.21129,13.026853 2.32887,19.072878 -0.84446,31.794476 l 5.40819,-5.581789 c -2.15735,6.395758 -2.9045,9.708915 -7.01797,15.564158 l 6.01682,-2.79008 c -4.43509,7.205 -6.22297,9.93947 -11.63117,16.09994 l 6.85632,-0.94114"
       style="fill:#ffffff;fill-opacity:1;fill-rule:nonzero;stroke:none;stroke-width:0.16193"
       id="path82" />
    <path
       d="m 175.79187,132.20755 c 6.19988,-2.3434 12.19854,-5.09536 17.55067,-9.34808 l -5.49727,-0.30374 c 3.96337,-1.78373 8.99552,-6.92676 11.933,-9.95218 l -6.57429,1.83308 c 5.34224,-4.73127 8.92461,-10.48318 10.88568,-18.950457 -4.3955,10.486337 -8.06859,14.233517 -16.70786,21.500477 l 6.55615,-1.29567 c -4.73033,3.38787 -6.92395,5.31946 -12.72798,7.41324 l 5.55993,0.91257 c -6.70953,2.87278 -9.32703,3.91406 -16.17675,5.60883 l 5.19872,2.58184"
       style="fill:#ffffff;fill-opacity:1;fill-rule:nonzero;stroke:none;stroke-width:0.16193"
       id="path84" />
    <path
       d="M 51.119634,133.96109 C 41.993813,128.53666 33.31002,122.52085 26.092489,114.30792 l 8.799251,1.0334 C 29.14213,111.42401 22.699794,101.88838 18.944234,96.284323 l 9.871326,4.718517 C 21.75637,92.0316 17.789696,81.931573 17.199233,67.974685 21.047149,85.799564 25.754377,92.75179 37.279988,106.64984 l -10.001616,-3.86322 c 6.486868,6.67241 9.389714,10.3369 17.961351,15.25735 l -9.077987,-0.0874 c 9.775659,6.40212 13.613682,8.77251 23.961664,13.34799 l -9.003766,2.65655"
       style="fill:#ffffff;fill-opacity:1;fill-rule:nonzero;stroke:none;stroke-width:0.16193"
       id="path86" />
    <path
       d="M 51.084994,116.20459 C 46.765364,109.84695 42.930641,103.227 40.786495,95.586397 l 5.523653,3.336995 C 43.750366,94.583244 42.549641,86.295599 41.865167,81.433966 l 5.043691,6.11278 c -1.794484,-8.098447 -1.164436,-16.01726 2.963871,-25.487721 -3.21292,13.026853 -2.330521,19.072878 0.842814,31.794476 l -5.406546,-5.581789 c 2.155688,6.395758 2.902845,9.708915 7.016304,15.564158 l -6.016803,-2.79008 c 4.436733,7.205 6.222975,9.93947 11.63117,16.09994 l -6.854674,-0.94114"
       style="fill:#ffffff;fill-opacity:1;fill-rule:nonzero;stroke:none;stroke-width:0.16193"
       id="path88" />
    <path
       d="m 31.830557,132.20755 c -6.201531,-2.3434 -12.198543,-5.09536 -17.550664,-9.34808 l 5.495611,-0.30374 c -3.963373,-1.78373 -8.99387,-6.92676 -11.9313501,-9.95218 l 6.5742831,1.83308 C 9.0745646,109.70536 5.4921908,103.95345 3.5327711,95.486173 7.9266219,105.97251 11.601361,109.71969 20.238971,116.98665 l -6.556143,-1.29567 c 4.73032,3.38787 6.925594,5.31946 12.72799,7.41324 l -5.559939,0.91257 c 6.70953,2.87278 9.328687,3.91406 16.178411,5.60883 l -5.198733,2.58184"
       style="fill:#ffffff;fill-opacity:1;fill-rule:nonzero;stroke:none;stroke-width:0.16193"
       id="path90" />
    <path
       d="m 97.975839,186.4135 v -1.34818 c 0,-0.27489 0.2309,-0.49761 0.51624,-0.49761 0.28533,0 0.516251,0.22262 0.516251,0.49761 v 1.79649 c 0.34803,0.12891 0.71416,0.24471 1.09517,0.3452 v -2.14149 c 0,-0.27492 0.2309,-0.49763 0.51623,-0.49763 0.28534,0 0.51626,0.22262 0.51626,0.49763 v 2.3688 c 0.35461,0.0653 0.72075,0.11629 1.09515,0.15412 v -2.52303 c 0,-0.2749 0.23092,-0.4976 0.51624,-0.4976 0.28371,0 0.5146,0.22262 0.5146,0.4976 v 2.59461 c 0.18144,0.004 0.36449,0.009 0.54924,0.009 0.18307,0 0.36616,-0.004 0.54758,-0.009 v -2.59461 c 0,-0.2749 0.2309,-0.4976 0.51624,-0.4976 0.2837,0 0.5146,0.22262 0.5146,0.4976 v 2.52303 c 0.37439,-0.036 0.74055,-0.0887 1.09681,-0.15412 v -2.3688 c 0,-0.27492 0.23091,-0.49763 0.51625,-0.49763 0.28369,0 0.51459,0.22262 0.51459,0.49763 v 2.14149 c 0.38262,-0.10011 0.74879,-0.21632 1.09681,-0.3452 v -1.79649 c 0,-0.27489 0.23092,-0.49761 0.51624,-0.49761 0.2837,0 0.5146,0.22262 0.5146,0.49761 v 1.34818 c 1.75161,-0.88711 2.85172,-2.16691 2.85172,-3.59139 v -0.24786 h -7.23732 c -0.28534,0 -0.51624,-0.22262 -0.51624,-0.49761 0,-0.27354 0.2309,-0.49603 0.51624,-0.49603 h 7.23732 v -1.05719 h -7.23732 c -0.28534,0 -0.51624,-0.22262 -0.51624,-0.49761 0,-0.27354 0.2309,-0.49604 0.51624,-0.49604 h 7.23732 v -1.05722 h -7.23732 c -0.28534,0 -0.51624,-0.22262 -0.51624,-0.49762 0,-0.27354 0.2309,-0.49599 0.51624,-0.49599 h 7.23732 v -1.05722 h -7.23732 c -0.28534,0 -0.51624,-0.22263 -0.51624,-0.49762 0,-0.27355 0.2309,-0.49604 0.51624,-0.49604 h 7.23732 v -1.05718 h -7.23732 c -0.28534,0 -0.51624,-0.22262 -0.51624,-0.49603 0,-0.27491 0.2309,-0.49761 0.51624,-0.49761 h 7.23732 V 172.32 h -7.23732 c -0.28534,0 -0.51624,-0.22262 -0.51624,-0.49599 0,-0.2749 0.2309,-0.4976 0.51624,-0.4976 h 7.23732 v -1.05724 h -7.23732 c -0.28534,0 -0.51624,-0.22262 -0.51624,-0.49604 0,-0.27489 0.2309,-0.4976 0.51624,-0.4976 h 7.23732 v -0.24786 c 0,-1.42447 -1.10011,-2.70424 -2.85172,-3.59134 v 1.34813 c 0,0.27489 -0.23091,0.4976 -0.5146,0.4976 -0.28532,0 -0.51624,-0.22262 -0.51624,-0.4976 v -1.79649 c -0.34803,-0.12888 -0.71416,-0.24471 -1.09681,-0.3452 v 2.14145 c 0,0.2749 -0.23092,0.49762 -0.51459,0.49762 -0.28534,0 -0.51625,-0.22262 -0.51625,-0.49762 v -2.36881 c -0.35626,-0.0653 -0.72242,-0.11626 -1.09681,-0.15412 v 2.52302 c 0,0.27491 -0.23091,0.49761 -0.5146,0.49761 -0.28534,0 -0.51624,-0.22262 -0.51624,-0.49761 v -2.59296 c -0.18141,-0.004 -0.36449,-0.009 -0.54758,-0.009 -0.18472,0 -0.36781,0.004 -0.54924,0.009 v 2.59296 c 0,0.27491 -0.23091,0.49761 -0.5146,0.49761 -0.28532,0 -0.51624,-0.22262 -0.51624,-0.49761 v -2.52302 c -0.3744,0.0361 -0.74055,0.0892 -1.09515,0.15412 v 2.36881 c 0,0.2749 -0.23092,0.49762 -0.51626,0.49762 -0.28533,0 -0.51623,-0.22262 -0.51623,-0.49762 v -2.1415 c -0.381,0.10004 -0.74716,0.21632 -1.09517,0.3452 v 1.79649 c 0,0.27489 -0.230921,0.49761 -0.516251,0.49761 -0.28534,0 -0.51624,-0.22263 -0.51624,-0.49761 v -1.34813 c -1.751611,0.88711 -2.851722,2.16687 -2.851722,3.59134 v 0.24786 h 7.238963 c 0.2837,0 0.51461,0.22262 0.51461,0.49762 0,0.27354 -0.23092,0.49602 -0.51461,0.49602 h -7.238963 v 1.05724 h 7.238963 c 0.2837,0 0.51461,0.22262 0.51461,0.49761 0,0.27354 -0.23092,0.49599 -0.51461,0.49599 h -7.238963 v 1.05723 h 7.238963 c 0.2837,0 0.51461,0.22262 0.51461,0.49761 0,0.27354 -0.23092,0.49604 -0.51461,0.49604 h -7.238963 v 1.05719 h 7.238963 c 0.2837,0 0.51461,0.22262 0.51461,0.49602 0,0.2749 -0.23092,0.49762 -0.51461,0.49762 h -7.238963 v 1.05722 h 7.238963 c 0.2837,0 0.51461,0.22264 0.51461,0.49599 0,0.27491 -0.23092,0.49762 -0.51461,0.49762 h -7.238963 v 1.05723 h 7.238963 c 0.2837,0 0.51461,0.22262 0.51461,0.49603 0,0.27491 -0.23092,0.49761 -0.51461,0.49761 h -7.238963 v 1.05719 h 7.238963 c 0.2837,0 0.51461,0.22262 0.51461,0.49604 0,0.2749 -0.23092,0.49761 -0.51461,0.49761 h -7.238963 v 0.24786 c 0,1.42446 1.100111,2.70428 2.851722,3.59139"
       style="fill:#ffffff;fill-opacity:1;fill-rule:nonzero;stroke:none;stroke-width:0.16193"
       id="path92" />
    <path
       d="m 193.87325,245.09257 c 4.28013,-3.32167 6.55522,-11.72461 5.09366,-17.13369 -6.13233,2.44681 -12.31133,4.65073 -18.52888,6.61175 -0.36644,-3.14986 -0.74123,-6.29776 -1.12389,-9.44365 -0.90685,-4.28345 -1.75255,-5.85542 -6.66936,-4.38808 -1.65772,0.49542 -43.66933,11.72657 -71.9032,9.9374 -28.209748,0.56282 -65.466936,-9.49106 -65.368842,-9.9374 -4.918425,-1.46734 -5.762558,0.10468 -6.670986,4.38808 -0.437357,3.12815 -0.87145,6.25825 -1.299148,9.3884 -6.158078,-1.94718 -12.279175,-4.1314 -18.3520365,-6.5565 -1.461538,5.41105 0.815186,13.81202 5.0936795,17.13369 -4.8717945,0.34372 -10.7758337,5.85144 -12.4303126,10.59504 9.5329646,3.8055 19.1704346,7.06396 28.8850766,9.77741 6.421766,1.76353 8.856061,-4.39995 7.17424,-7.15879 -2.193103,-3.68502 -4.780139,-0.0908 -8.98147,-1.3093 -3.678764,-1.10594 -1.376319,-8.56293 4.088781,-6.99292 22.249469,6.26619 44.913775,9.55426 67.597358,9.86233 25.03745,0.34147 50.10067,-2.94448 74.65741,-9.86233 5.46671,-1.57001 7.76912,5.88698 4.08875,6.99292 -4.19969,1.21845 -6.78672,-2.37572 -8.98144,1.3093 -1.68025,2.75884 0.75406,8.92232 7.17583,7.15879 9.71307,-2.71345 19.35216,-5.97191 28.88347,-9.77741 -1.65286,-4.7436 -7.55527,-10.25138 -12.42869,-10.59504"
       style="fill:#ffffff;fill-opacity:1;fill-rule:nonzero;stroke:none;stroke-width:0.178193"
       id="path854"
       sodipodi:nodetypes="ccccccccccccccccccccccc" />
    <g
       aria-label="metal palace"
       transform="matrix(-1.0104482,0.03627674,-0.037206,-1.1947387,219.26489,480.92632)"
       id="text3148"
       style="font-size:14.1111px;font-family:Viking-Normal;-inkscape-font-specification:'Viking-Normal, Normal';shape-subtract:url(#path854);fill:#4e00cf;stroke-width:0.264583;fill-opacity:1">
      <path
         d="m 176.44569,210.64424 -0.204,-3.00125 1.93203,-0.0445 0.20361,2.63519 q 0.0275,0.2529 0.0424,0.49929 0.002,0.23988 -0.0136,0.45421 -0.0186,0.37208 -0.0938,0.73062 -0.0877,0.35202 -0.26462,0.7531 -0.013,0.025 -0.0261,0.0501 -0.013,0.025 -0.026,0.0501 -5.1e-4,0.0316 -0.0135,0.0566 -0.013,0.025 -0.026,0.0501 -0.0586,0.11266 -0.11725,0.22532 -0.0776,0.11867 -0.14879,0.22481 -0.45188,0.62386 -1.05295,1.10645 -0.6201,0.4886 -1.154,0.71981 -0.20986,0.0976 -0.39366,0.14513 -0.1838,0.0475 -0.32903,0.0515 l -3.60517,0.0806 q -0.17026,-0.009 -0.32149,-0.0241 -0.15775,-0.003 -0.28995,-0.0236 -0.11317,-0.0271 -0.20731,-0.0601 -0.10065,-0.0206 -0.20079,-0.0727 -0.0751,-0.0391 -0.1437,-0.0907 -0.0751,-0.0391 -0.14971,-0.10971 -0.24883,-0.22492 -0.50213,-0.56352 -0.25982,-0.32608 -0.48056,-0.72727 -0.15916,-0.30552 -0.3053,-0.63608 -0.14614,-0.33056 -0.25422,-0.67312 l -0.16862,-0.50133 q -0.005,-0.0506 -0.005,-0.0821 -0.012,-0.0381 -0.024,-0.0761 -0.012,-0.0381 -0.0115,-0.0696 -0.006,-0.019 -0.018,-0.0571 -0.0295,-0.12671 -0.072,-0.22838 -0.0551,-0.10819 -0.18023,-0.17332 -0.0876,-0.0456 -0.16976,-0.0406 -0.0947,-0.002 -0.17077,0.0225 -0.0381,0.012 -0.0571,0.018 -0.019,0.006 -0.0506,0.005 -0.0381,0.012 -0.0696,0.0115 -0.0381,0.012 -0.0761,0.024 l -3.13753,0.43533 q -0.11368,0.004 -0.21484,0.0155 -0.11368,0.004 -0.20833,0.003 -0.15774,-0.003 -0.32149,-0.0241 -0.17627,-0.0281 -0.36455,-0.0942 -0.0125,-0.007 -0.0125,-0.007 -0.0125,-0.007 -0.025,-0.013 -0.20029,-0.10422 -0.62731,-0.62865 -0.44606,-0.51844 -0.84398,-1.28224 -0.45297,-0.87199 -0.68855,-1.91719 -0.23559,-1.0452 0.1648,-1.99809 0.013,-0.025 0.026,-0.0501 0.013,-0.025 0.007,-0.0441 0.013,-0.025 0.026,-0.0501 0.013,-0.025 0.026,-0.0501 0.0717,-0.13769 0.17485,-0.27488 0.0842,-0.13118 0.19989,-0.26186 0.23092,-0.22979 0.51843,-0.44605 0.28751,-0.21626 0.61909,-0.4255 l 2.79234,-1.72845 q -0.13668,-0.13475 -0.26135,-0.23143 -0.13118,-0.0842 -0.26236,-0.16834 -0.1437,-0.0907 -0.2874,-0.18136 -0.15022,-0.0782 -0.32547,-0.16935 -0.20028,-0.10422 -0.36953,-0.17638 -0.16924,-0.0722 -0.33248,-0.12529 -0.14421,-0.0591 -0.29494,-0.10574 -0.15724,-0.0341 -0.33951,-0.0812 0.10167,-0.0425 0.19683,-0.0726 0.0952,-0.03 0.17128,-0.054 0.20284,-0.0535 0.41167,-0.088 0.18981,-0.0285 0.42317,-0.0184 0.0315,5.1e-4 0.0631,10e-4 0.019,-0.006 0.0506,-0.006 0.22084,0.004 0.41614,0.0257 0.1953,0.0221 0.37758,0.0692 0.29544,0.0742 0.57134,0.18595 0.2759,0.11175 0.60137,0.2811 0.0375,0.0195 0.0751,0.0391 0.0376,0.0195 0.0751,0.0391 0.17525,0.0912 0.33798,0.17587 0.1437,0.0907 0.28089,0.19388 0.1497,0.10971 0.29289,0.23194 0.14319,0.12223 0.31091,0.28904 l -1.57524,1.00965 q -0.28049,0.1722 -0.56148,0.37594 -0.29351,0.19723 -0.58102,0.41349 -0.59456,0.47007 -1.07544,0.93567 -0.48088,0.4656 -0.65675,0.80358 -0.0386,0.0436 -0.0456,0.0876 -0.0261,0.0501 -0.0331,0.0941 -0.18951,0.79219 0.0236,1.66662 0.20058,0.86791 0.57997,1.60617 0.29381,0.56647 0.62823,0.96318 0.3279,0.40923 0.59077,0.54602 0.0436,0.0386 0.0876,0.0456 0.0376,0.0195 0.0691,0.02 1.56738,0.25883 2.62532,-0.76548 1.05142,-1.0118 1.80598,-2.40077 0.0261,-0.0501 0.0521,-0.10014 0.026,-0.0501 0.0521,-0.10015 l 1.58932,-3.05435 2.00256,0.27848 -2.86843,5.26797 q 0,0 -0.007,0.0125 -0.007,0.0125 -0.013,0.025 -0.15632,0.30043 -0.17994,0.59037 -0.0361,0.28344 0.0344,0.60646 0.005,0.0506 0.0235,0.10768 0.005,0.0506 0.0235,0.10767 0.4433,1.47143 1.09361,2.23931 0.64379,0.78039 1.04437,0.98883 0.0626,0.0326 0.11917,0.0461 0.0501,0.0261 0.0941,0.0331 0.54132,0.0908 1.17791,-0.24606 0.61756,-0.33086 1.15553,-0.81447 0.4418,-0.39049 0.78895,-0.78251 0.32812,-0.38601 0.45839,-0.63637 0.0195,-0.0376 0.0391,-0.0751 0.0195,-0.0376 0.02,-0.0691 0.0341,-0.15724 0.0932,-0.30145 0.0401,-0.1382 0.0737,-0.26389 0.0401,-0.1382 0.0927,-0.2699 0.0336,-0.12568 0.0547,-0.25789 0.0276,-0.14471 0.0427,-0.29595 0.009,-0.13871 -0.007,-0.322 z"
         id="path6571"
         style="fill:#4e00cf;fill-opacity:1" />
      <path
         d="m 159.65505,209.86426 0.0303,-0.009 q -0.0771,0.0287 -0.48623,0.0672 -0.4117,0.0524 -0.88664,0.13608 -0.17681,0.0244 -0.35621,0.0628 -0.1794,0.0383 -0.34493,0.0792 -0.16811,0.0548 -0.33881,0.12342 -0.1707,0.0686 -0.32753,0.13988 -0.31366,0.14246 -0.58053,0.26494 -0.28333,0.13377 -0.48012,0.11142 -0.0581,0.004 -0.11356,-0.007 -0.0694,-0.0129 -0.13872,-0.0259 -0.18034,-0.0336 -0.38583,-0.0863 -0.21936,-0.0553 -0.45001,-0.12699 -0.0529,-0.0242 -0.1058,-0.0484 -0.0555,-0.0104 -0.11098,-0.0207 l -3.10329,-0.90892 q -0.0529,-0.0242 -0.33645,-0.12016 -0.28355,-0.096 -0.61223,-0.25773 -0.34256,-0.16437 -0.61929,-0.37388 -0.27672,-0.20951 -0.24661,-0.44791 0,0 0,0 0,0 0.003,-0.0139 0.0181,-0.0971 0.0917,-0.18385 0.0597,-0.0893 0.16107,-0.17093 0.071,-0.0729 0.16977,-0.14059 0.0987,-0.0677 0.1975,-0.13542 0.0823,-0.0564 0.16459,-0.11284 0.0684,-0.059 0.13685,-0.11803 0.13944,-0.13189 0.25982,-0.23863 0.10393,-0.0954 0.22432,-0.20219 0.003,-0.0139 0.019,-0.0251 0.0165,-0.0113 0.0165,-0.0113 0.12039,-0.10674 0.24078,-0.21347 0.12039,-0.10674 0.25723,-0.22476 -0.0814,0.12837 -0.13238,0.24804 -0.051,0.11967 -0.0743,0.24452 -0.0336,0.18034 -0.009,0.35715 0.008,0.18809 0.0853,0.38913 0.14081,0.39947 0.48337,0.56384 0.34256,0.16437 0.73967,0.26714 0.0668,0.0268 0.13613,0.0397 0.0694,0.0129 0.13614,0.0397 l 2.80939,0.86846 q 0.24711,0.0604 0.48034,0.11829 0.23065,0.0717 0.46647,0.11571 0.26357,0.0492 0.50715,0.0515 0.241,0.0162 0.49493,-0.0369 0.3146,-0.0705 0.66425,-0.6369 0.33579,-0.56897 0.56484,-1.25833 0.0588,-0.16129 0.1037,-0.32516 0.0449,-0.16388 0.0734,-0.31647 l 0.15451,-0.67455 -5.99547,-1.33348 q -0.10839,-0.0346 -0.21936,-0.0553 -0.11098,-0.0207 -0.20808,-0.0388 -0.0832,-0.0155 -0.15259,-0.0285 -0.0832,-0.0155 -0.16647,-0.031 -0.15259,-0.0285 -0.32164,-0.0456 -0.17164,-0.003 -0.37102,-0.0118 -0.13002,0.004 -0.24358,-0.002 -0.11615,0.007 -0.21584,0.003 -0.11615,0.007 -0.21843,0.0167 -0.11615,0.007 -0.24876,0.0254 l -0.007,-0.11615 q 0.10745,-0.0374 0.29202,-0.10343 0.18199,-0.0522 0.40559,-0.0966 0.18199,-0.0522 0.38913,-0.0853 0.19327,-0.0357 0.39782,-0.055 0.0277,0.005 0.0719,-9.4e-4 0.0277,0.005 0.0581,-0.004 0.78012,-0.0268 1.62279,0.073 0.82879,0.0971 1.81628,0.26697 l 3.08474,0.5466 q -0.10602,-0.27815 -0.32137,-0.66282 -0.22922,-0.38726 -0.52262,-0.81519 -0.23957,-0.33177 -0.50947,-0.65484 -0.28377,-0.32566 -0.58917,-0.61229 -0.28284,-0.25371 -0.54051,-0.48837 -0.27414,-0.22338 -0.55345,-0.41902 -0.39122,-0.28828 -0.79797,-0.49333 -0.4232,-0.19376 -0.90872,-0.28431 -0.19421,-0.0362 -0.40487,-0.0612 -0.21325,-0.0111 -0.44297,-0.0108 -0.11615,0.007 -0.24875,0.0254 -0.14649,0.0157 -0.28168,0.0479 -0.10745,0.0374 -0.21232,0.0609 -0.12132,0.0348 -0.22877,0.0722 -0.33623,0.10954 -0.58147,0.193 -0.24782,0.0973 -0.23747,0.0418 0.0104,-0.0555 0.0649,-0.11709 0.0546,-0.0616 0.13685,-0.11802 0.0658,-0.0451 0.14554,-0.0877 0.0797,-0.0426 0.15683,-0.0712 0.0165,-0.0113 0.0468,-0.02 0.0165,-0.0113 0.0468,-0.02 l 1.90287,-0.73605 q 0.17329,-0.0825 0.33881,-0.12342 0.15166,-0.0435 0.29814,-0.0592 0.29555,-0.0454 0.58075,-0.0352 0.2852,0.0101 0.64845,0.0635 0.0416,0.008 0.0832,0.0155 0.0416,0.008 0.0832,0.0155 0.36066,0.0673 0.76389,0.21424 0.38676,0.15826 0.76928,0.41621 0.29577,0.18435 0.58119,0.42419 0.26897,0.25113 0.5163,0.54128 l 1.37464,1.6344 q 0.663,0.75524 0.88655,1.55772 0.22096,0.81634 0.0399,1.78738 -0.0207,0.11097 -0.0414,0.22195 -0.0207,0.11097 -0.0553,0.21936 -0.0449,0.16388 -0.0924,0.34163 -0.0614,0.17516 -0.13404,0.33386 -0.23257,0.63128 -0.53285,1.16381 -0.31415,0.52994 -0.56362,0.71308 -0.0165,0.0113 -0.0303,0.009 -0.0165,0.0113 -0.0329,0.0226 z"
         id="path6573"
         style="fill:#4e00cf;fill-opacity:1" />
      <path
         d="m 147.68163,207.45482 -1.7146,0.75412 3.43796,0.48355 q -0.20996,0.0877 -0.39017,0.16487 -0.18021,0.0772 -0.36042,0.15434 -0.0612,0.0351 -0.13472,0.0544 -0.0752,0.0333 -0.15047,0.0666 -0.13472,0.0544 -0.28344,0.10702 -0.14873,0.0526 -0.3272,0.1158 -0.63866,0.21935 -1.0323,0.41222 -0.39537,0.20688 -0.52141,0.19124 -0.028,-0.003 -0.0403,-0.0192 -0.014,-0.002 -0.0245,-0.0315 -0.009,-0.0437 0.0419,-0.10855 0.049,-0.0508 0.12767,-0.11213 0.0315,-0.0245 0.077,-0.0473 0.0315,-0.0245 0.0787,-0.0613 0.0297,-0.0105 0.0752,-0.0333 0.0315,-0.0245 0.0612,-0.0351 l 0.22743,-0.11396 q -0.62147,-0.14823 -1.12213,-0.2388 -0.51466,-0.0923 -1.01705,-0.16888 -0.18205,-0.0226 -0.37636,-0.0609 -0.19606,-0.0243 -0.39211,-0.0487 -0.33435,-0.0557 -0.6827,-0.11317 -0.35009,-0.0434 -0.74046,-0.10611 -0.46038,-0.0714 -0.86475,-0.13576 -0.42011,-0.0521 -0.78421,-0.0973 -1.1623,-0.14425 -1.8677,-0.18914 -0.72114,-0.0326 -1.12193,-0.0113 -0.35704,0.0126 -0.50403,0.0512 -0.14699,0.0386 -0.175,0.0352 0.2257,-0.1 0.42339,-0.2034 0.19595,-0.0894 0.39016,-0.16487 0.28345,-0.10702 0.57743,-0.18429 0.29224,-0.0633 0.65276,-0.10384 0.83654,-0.0953 1.71172,-0.0435 0.85944,0.064 1.89571,0.1926 l 2.40689,0.31293 q 0.0455,-0.0228 0.091,-0.0456 0.0437,-0.009 0.0875,-0.0176 0.16273,-0.0509 0.31319,-0.11755 0.15046,-0.0666 0.28161,-0.20678 0.2763,-0.27853 0.53645,-0.99987 0.26016,-0.72134 0.36791,-1.58957 0.007,-0.056 0.0139,-0.11203 0.007,-0.056 0.0139,-0.11203 0.0468,-0.49186 0.0359,-0.97668 -0.0249,-0.48655 -0.12684,-0.92578 -0.0562,-0.23449 -0.40313,-0.64724 -0.34865,-0.39876 -0.87414,-0.86211 -0.39762,-0.34796 -0.86699,-0.6906 -0.48338,-0.34437 -0.97371,-0.63274 -0.50607,-0.27609 -0.99282,-0.47869 -0.48675,-0.20261 -0.92087,-0.25648 -0.07,-0.009 -0.14003,-0.0174 -0.07,-0.009 -0.12777,-0.002 -0.48308,-0.003 -0.8943,0.1023 -0.42696,0.11765 -0.75764,0.26146 -0.37789,0.18061 -0.62281,0.32085 -0.26065,0.1525 -0.36042,0.15434 -0.014,-0.002 -0.014,-0.002 -0.014,-0.002 -0.0263,-0.0175 -0.11561,-0.0997 0.30594,-0.40283 0.40755,-0.3049 1.10211,-0.63107 0.3779,-0.18061 0.81182,-0.35426 0.43217,-0.15966 0.87314,-0.27557 0.4567,-0.12817 0.88898,-0.17405 0.41827,-0.0476 0.78237,-0.002 0,0 0.014,0.002 0,0 0.014,0.002 0.014,0.002 0.028,0.003 0,0 0,0 0.41837,0.0661 0.85432,0.21978 0.43422,0.16764 0.87375,0.40704 0.71796,0.40193 1.4028,0.95616 0.67084,0.55249 1.17016,1.11214 0.40998,0.47746 0.6694,0.9078 0.25768,0.44434 0.27546,0.75937 0.002,0.0998 0.0335,0.30277 0.0177,0.20126 0.0389,0.48829 0.0283,0.34478 0.0322,0.77184 0.002,0.44106 -0.0517,0.87518 -0.002,0.014 -0.003,0.028 -0.003,0.028 -0.007,0.056 -0.0974,0.67044 -0.38568,1.27453 -0.28827,0.6041 -0.91813,0.8672 z"
         id="path6575"
         style="fill:#4e00cf;fill-opacity:1" />
      <path
         d="m 139.61149,195.88236 0.002,-0.0281 q -0.23956,0.16505 -0.42173,0.32048 -0.18106,0.14137 -0.34917,0.29792 -0.12145,0.10363 -0.24401,0.22132 -0.12145,0.10362 -0.22883,0.20836 -0.16922,0.17062 -0.32549,0.35642 -0.15515,0.17173 -0.34178,0.38343 -0.15404,0.15767 -0.26365,0.29054 -0.11072,0.14694 -0.20626,0.28093 -0.0163,0.027 -0.0326,0.054 -0.0163,0.027 -0.0467,0.0529 -0.12813,0.18803 -0.28886,0.4301 -0.1759,0.25502 -0.44846,0.65809 l -1.18244,1.70408 0.88622,0.0702 -1.31282,0.49056 -3.29107,4.73618 q 0.18287,0.0145 0.33761,0.0267 0.15362,0.0263 0.30725,0.0526 0.0563,0.004 0.1266,0.01 0.0563,0.004 0.12661,0.01 0.0844,0.007 0.1688,0.0134 0.0844,0.007 0.18287,0.0145 0.19694,0.0156 0.36686,0.0149 0.15585,-0.002 0.3117,-0.004 0.14067,0.0111 0.29764,-0.005 0.14178,-0.003 0.3117,-0.004 -0.0759,0.0648 -0.13663,0.11657 -0.0607,0.0518 -0.12145,0.10363 -0.0759,0.0648 -0.15069,0.11546 -0.09,0.0636 -0.17883,0.11324 -0.0737,0.0366 -0.14736,0.0733 -0.0889,0.0496 -0.19178,0.0981 -0.14736,0.0733 -0.26435,0.12062 -0.11811,0.0614 -0.2351,0.10878 -0.20474,0.0829 -0.43315,0.10725 -0.24248,0.0233 -0.67856,-0.0113 l -1.91201,-0.16558 -0.82357,-1.93372 -3.12926,-7.49532 -1.22383,-0.0969 q -0.12549,-0.0241 -0.22396,-0.0319 -0.0985,-0.008 -0.19694,-0.0156 -0.0855,0.007 -0.16992,7e-4 -0.0996,0.006 -0.19917,0.0125 -0.0855,0.007 -0.15696,0.0159 -0.0714,0.008 -0.15808,0.0299 -0.0714,0.008 -0.1429,0.017 -0.0726,0.0226 -0.15919,0.044 0.1844,-0.18357 0.39471,-0.33678 0.20919,-0.13914 0.43133,-0.2631 0.31101,-0.17355 0.60349,-0.29194 0.2773,-0.10544 0.45279,-0.17647 0.16031,-0.0581 0.44388,-0.0639 0.2695,-0.007 0.59304,0.0187 0.0422,0.003 0.0844,0.007 0.0281,0.002 0.0703,0.006 0.23914,0.0189 0.47716,0.052 0.23803,0.033 0.41979,0.0616 0.16769,0.0274 0.27911,0.0504 0.11142,0.023 0.12549,0.0241 l 1.60425,3.69418 5.17111,0.4803 1.74456,-2.36733 q 0.0967,-0.14805 0.20626,-0.28093 0.0944,-0.11992 0.20404,-0.25279 0.21811,-0.25168 0.47841,-0.50001 0.26031,-0.24834 0.578,-0.50628 0.21142,-0.16728 0.40655,-0.30753 0.18106,-0.14137 0.361,-0.26868 0.21031,-0.1532 0.43245,-0.27716 0.22326,-0.13803 0.48761,-0.25865 0.11699,-0.0474 0.24917,-0.10766 0.13217,-0.0603 0.27841,-0.11951 z m -6.0071,5.96492 -4.27527,-0.35273 1.66121,3.86855 z"
         id="path6577"
         style="fill:#4e00cf;fill-opacity:1" />
      <path
         d="m 121.82499,196.53604 -0.2119,5.37232 -0.2852,7.21948 1.77601,0.0841 -1.03679,0.71378 q -0.0289,0.0128 -0.0577,0.0255 -0.0288,0.0128 -0.0584,0.0396 -0.0436,0.0262 -0.0731,0.053 -0.0436,0.0262 -0.10067,0.0376 -0.0577,0.0255 -0.1,0.0235 -0.0564,-0.003 -0.11277,-0.005 -0.0282,-0.001 -0.0564,-0.003 -0.0423,-0.002 -0.0846,-0.004 l -2.05525,-0.15379 0.19923,-5.1045 0.29929,-7.21881 -2.52982,-0.27514 q -0.26647,-0.0409 -0.47724,-0.065 -0.21143,-0.01 -0.40876,-0.0194 -0.21076,-0.0241 -0.42286,-0.02 -0.22619,0.003 -0.49534,0.0189 -0.33962,0.0122 -0.53962,0.0592 -0.20067,0.0611 -0.37382,0.1377 -0.10134,0.0517 -0.20267,0.10342 -0.10134,0.0517 -0.23153,0.11619 l -0.0947,-0.0892 q 0.1181,-0.10743 0.33754,-0.26657 0.21944,-0.15913 0.49592,-0.3297 0.15972,-0.0913 0.34829,-0.19541 0.17382,-0.0907 0.36106,-0.16656 0.31744,-0.14038 0.60335,-0.2116 0.27181,-0.0719 0.54162,-0.10151 0.38391,-0.0525 0.77858,-0.0338 0.39467,0.0187 0.85982,0.0407 z"
         id="path6579"
         style="fill:#4e00cf;fill-opacity:1" />
      <path
         d="m 102.61445,200.26363 0.077,-3.56953 1.82791,-0.77253 -0.0218,2.24356 -0.0701,7.22454 1.9908,-0.10769 -0.93785,0.66827 q -0.0567,0.0277 -0.0993,0.0555 -0.0567,0.0277 -0.0995,0.0696 -0.0851,0.0415 -0.17015,0.083 -0.0992,0.0414 -0.21248,0.0826 -0.099,0.0273 -0.18384,0.0405 -0.0991,0.0273 -0.18385,0.0406 -0.0848,0.0133 -0.16946,0.0125 -0.0989,0.0132 -0.19768,0.0122 l -3.79818,0.21717 q -0.0422,-0.0145 -0.0704,-0.0148 -0.0423,-4.1e-4 -0.0848,0.0133 -0.0423,-4.1e-4 -0.0706,-6.8e-4 -0.0423,-4.1e-4 -0.0847,-8.2e-4 -1.411048,-0.0137 -2.546466,-0.80085 -1.135417,-0.78716 -1.24804,-2.26999 1.37e-4,-0.0141 2.74e-4,-0.0282 1.37e-4,-0.0141 2.74e-4,-0.0282 1.37e-4,-0.0141 2.74e-4,-0.0282 1.36e-4,-0.0141 2.73e-4,-0.0282 -0.0037,-1.07253 1.373217,-1.90588 1.376788,-0.81924 3.016474,-1.09968 0.36755,-0.067 0.73484,-0.10577 0.36714,-0.0247 0.7199,-0.0212 z m -0.82713,5.25566 0.79033,-0.006 0.0439,-4.52945 q -0.0279,-0.0285 -0.16864,-0.0722 -0.15494,-0.0297 -0.36619,-0.0741 -0.14083,-0.0296 -0.30988,-0.0594 -0.16905,-0.0299 -0.35221,-0.0599 -0.12686,-0.0153 -0.25372,-0.0307 -0.12699,-0.001 -0.25398,-0.002 -0.0141,-1.4e-4 -0.0141,-1.4e-4 -0.0141,-1.4e-4 -0.0282,-2.7e-4 0,0 0,0 -0.0141,-1.4e-4 -0.0282,-2.8e-4 -0.0705,-6.8e-4 -0.1411,-0.001 -0.0707,0.0134 -0.14138,0.0269 -0.847583,0.0906 -1.558169,0.6058 -0.710723,0.52935 -0.718799,1.36187 -2.74e-4,0.0282 -5.47e-4,0.0564 -4.11e-4,0.0423 -8.22e-4,0.0847 0.112486,1.49694 1.16502,2.09984 1.052537,0.60291 2.336857,0.58714 z"
         id="path6581"
         style="fill:#4e00cf;fill-opacity:1" />
      <path
         d="m 98.713463,193.88257 -4.35e-4,-0.0282 q -0.222921,0.1869 -0.389622,0.35883 -0.166918,0.15782 -0.31951,0.32952 -0.111134,0.11462 -0.22205,0.24335 -0.111134,0.11461 -0.208158,0.22901 -0.152374,0.18582 -0.29042,0.38553 -0.138265,0.1856 -0.304095,0.41396 -0.138482,0.17149 -0.235071,0.31411 -0.09637,0.15673 -0.178851,0.29913 -0.01367,0.0284 -0.02735,0.0569 -0.01367,0.0284 -0.04146,0.0571 -0.109827,0.19927 -0.247003,0.45542 -0.151068,0.27047 -0.384397,0.69746 l -1.016451,1.808 0.888893,-0.0137 -1.260705,0.61218 -2.829697,5.02547 q 0.183423,-0.003 0.338626,-0.005 0.155422,0.0117 0.310843,0.0234 0.05644,-8.7e-4 0.126985,-0.002 0.05644,-8.7e-4 0.126984,-0.002 0.08466,-0.001 0.169314,-0.003 0.08466,-10e-4 0.183422,-0.003 0.197532,-0.003 0.366627,-0.0198 0.154986,-0.0165 0.309972,-0.033 0.141094,-0.002 0.295863,-0.0328 0.140876,-0.0163 0.309971,-0.033 -0.06946,0.0716 -0.125025,0.12895 -0.05557,0.0573 -0.111134,0.11461 -0.06946,0.0716 -0.139135,0.12917 -0.08357,0.0719 -0.167354,0.12959 -0.06989,0.0434 -0.139788,0.0868 -0.08379,0.0577 -0.181681,0.1157 -0.139788,0.0868 -0.251793,0.14501 -0.111787,0.0723 -0.223791,0.13047 -0.196008,0.10182 -0.421106,0.14763 -0.239207,0.046 -0.676599,0.0528 l -1.919099,0.0155 -1.002285,-1.84742 -3.822233,-7.16678 -1.22752,0.0189 q -0.127202,-0.0121 -0.225968,-0.0106 -0.09877,0.002 -0.197532,0.003 -0.08444,0.0154 -0.169096,0.0167 -0.09855,0.0156 -0.197096,0.0313 -0.08444,0.0154 -0.154768,0.0306 -0.07033,0.0152 -0.154551,0.0447 -0.07033,0.0152 -0.140659,0.0304 -0.07011,0.0293 -0.154333,0.0588 0.166266,-0.20015 0.361185,-0.37251 0.195138,-0.15825 0.404602,-0.30261 0.29325,-0.2021 0.573262,-0.34755 0.26612,-0.13112 0.434127,-0.21839 0.154115,-0.0729 0.435868,-0.10551 0.267644,-0.0324 0.59216,-0.0374 0.04233,-6.5e-4 0.08466,-0.001 0.02822,-4.4e-4 0.07055,-10e-4 0.23986,-0.004 0.479938,0.007 0.240078,0.0104 0.423718,0.0217 0.169531,0.0115 0.282624,0.0239 0.113093,0.0124 0.127202,0.0121 l 1.94552,3.52641 5.193355,-0.01 1.513506,-2.52131 q 0.08226,-0.15651 0.178851,-0.29913 0.0827,-0.12829 0.179286,-0.27091 0.193396,-0.27112 0.42912,-0.5429 0.235724,-0.27178 0.527668,-0.55854 0.194702,-0.18647 0.37573,-0.34451 0.166919,-0.15781 0.334055,-0.30152 0.19492,-0.17236 0.404384,-0.31672 0.209247,-0.15847 0.46104,-0.30348 0.112004,-0.0582 0.2379,-0.13068 0.125897,-0.0725 0.265903,-0.14524 z m -5.417736,6.5049 -4.289482,0.0521 2.018679,3.69463 z"
         id="path6583"
         style="fill:#4e00cf;fill-opacity:1" />
      <path
         d="m 81.064796,196.18512 0.271804,5.36962 0.364815,7.21588 1.776378,-0.0759 -0.968446,0.80408 q -0.02759,0.0153 -0.05519,0.0306 -0.02759,0.0153 -0.05459,0.0447 -0.04109,0.03 -0.06808,0.0594 -0.04109,0.03 -0.09688,0.0465 -0.05519,0.0306 -0.09748,0.0324 -0.05639,0.002 -0.112785,0.005 -0.0282,0.001 -0.05639,0.002 -0.04229,0.002 -0.08459,0.004 l -2.060752,0.0316 -0.260359,-5.10176 -0.350717,-7.21649 -2.544309,-0.0466 q -0.269071,-0.0168 -0.481147,-0.0218 -0.211473,0.009 -0.408849,0.0175 -0.212076,-0.005 -0.422947,0.0181 -0.224969,0.0237 -0.491631,0.0634 -0.337153,0.0427 -0.532119,0.10748 -0.194363,0.0789 -0.359928,0.17074 -0.09628,0.0606 -0.192556,0.12122 -0.09628,0.0606 -0.22015,0.13652 l -0.102302,-0.0804 q 0.107967,-0.11761 0.312212,-0.29582 0.204245,-0.17822 0.46428,-0.37294 0.150864,-0.10531 0.329322,-0.22593 0.164962,-0.10592 0.344625,-0.19834 0.303535,-0.16833 0.581885,-0.26497 0.264252,-0.096 0.530312,-0.14977 0.37764,-0.0868 0.772391,-0.10362 0.39475,-0.0169 0.859992,-0.0368 z"
         id="path6585"
         style="fill:#4e00cf;fill-opacity:1" />
      <path
         d="m 74.233878,194.44894 -0.0021,-0.0281 q -0.211673,0.19955 -0.368091,0.38089 -0.157457,0.16725 -0.299803,0.34754 -0.104279,0.12089 -0.20752,0.25585 -0.10428,0.12089 -0.194486,0.24074 -0.141308,0.19436 -0.267505,0.40176 -0.127235,0.19333 -0.279502,0.43095 -0.128273,0.17925 -0.216403,0.32725 -0.08709,0.16207 -0.16115,0.30902 -0.012,0.0292 -0.02399,0.0584 -0.012,0.0292 -0.03807,0.0594 -0.09805,0.20532 -0.220096,0.46901 -0.13508,0.2788 -0.34318,0.71864 l -0.90957,1.86406 0.886591,-0.0654 -1.222963,0.68448 -2.532607,5.18154 q 0.182947,-0.0135 0.337749,-0.0249 0.155839,0.003 0.311679,0.005 0.05629,-0.004 0.126656,-0.009 0.05629,-0.004 0.126656,-0.009 0.08444,-0.006 0.168874,-0.0125 0.08444,-0.006 0.182947,-0.0135 0.197021,-0.0145 0.364857,-0.0411 0.153764,-0.0255 0.307527,-0.051 0.140729,-0.0104 0.293455,-0.0499 0.13969,-0.0245 0.307527,-0.051 -0.06518,0.0756 -0.117314,0.136 -0.05214,0.0604 -0.104279,0.12089 -0.06518,0.0755 -0.131387,0.13703 -0.07925,0.0766 -0.159533,0.13912 -0.06725,0.0474 -0.134501,0.0948 -0.08029,0.0625 -0.174643,0.12608 -0.134501,0.0948 -0.242932,0.15941 -0.107393,0.0787 -0.215825,0.14326 -0.189754,0.11305 -0.411806,0.17187 -0.236125,0.0599 -0.672384,0.092 l -1.914949,0.1271 -1.108041,-1.786 -4.232608,-6.93233 -1.22434,0.0903 q -0.127694,-0.005 -0.226204,0.003 -0.09851,0.007 -0.19702,0.0145 -0.0834,0.0203 -0.167837,0.0265 -0.09747,0.0213 -0.194944,0.0427 -0.0834,0.0203 -0.152726,0.0396 -0.06933,0.0193 -0.151687,0.0536 -0.06933,0.0193 -0.138653,0.0385 -0.06829,0.0333 -0.15065,0.0677 0.154343,-0.20947 0.338907,-0.39288 0.185603,-0.16933 0.386316,-0.32563 0.280999,-0.21882 0.552077,-0.38031 0.258042,-0.14637 0.420689,-0.24327 0.149612,-0.0818 0.428993,-0.13068 0.265309,-0.0479 0.588985,-0.0717 0.04222,-0.003 0.08444,-0.006 0.02815,-0.002 0.07036,-0.005 0.239239,-0.0177 0.479515,-0.0212 0.240277,-0.004 0.424262,-0.003 0.169913,0.002 0.283534,0.007 0.113621,0.006 0.127694,0.005 l 2.147334,3.40728 5.184007,-0.31161 1.364295,-2.60508 q 0.07302,-0.16103 0.16115,-0.30902 0.07509,-0.13288 0.163226,-0.28088 0.177298,-0.28192 0.396816,-0.56695 0.219517,-0.28503 0.494288,-0.58828 0.183526,-0.19748 0.355056,-0.36577 0.157457,-0.16726 0.315952,-0.32045 0.184564,-0.1834 0.385277,-0.3397 0.199676,-0.17037 0.442608,-0.32978 0.108431,-0.0646 0.229897,-0.14431 0.121466,-0.0797 0.257005,-0.16045 z m -5.030215,6.809 -4.279192,0.30147 2.230155,3.57096 z"
         id="path6587"
         style="fill:#4e00cf;fill-opacity:1" />
      <path
         d="m 48.155307,200.63395 0.05446,-0.0205 -0.262573,0.18654 0.0038,-0.21351 1.157048,-0.92894 q 0.751597,-0.62649 1.4951,-0.95375 0.745121,-0.31323 1.488082,-0.39895 0.364471,-0.042 0.733794,-0.042 0.37094,0.014 0.748349,0.0841 0.506806,0.0836 1.023316,0.25127 0.504109,0.18332 1.042724,0.41948 1.350578,0.62545 2.342611,1.59056 0.992033,0.9651 1.135966,2.21272 0.0065,0.0561 0.01132,0.0981 0.0065,0.0561 0.01294,0.11215 0.0049,0.042 0.0097,0.0841 -0.0075,0.0577 -0.0011,0.11376 0.0081,0.80874 -0.172558,1.58242 -0.194649,0.77531 -0.449679,1.27349 -0.04637,0.0906 -0.09436,0.16713 -0.04799,0.0766 -0.09759,0.1391 -0.01078,0.0297 -0.393587,0.15905 -0.395205,0.14503 -0.841631,0.33857 -0.202186,0.0943 -0.376335,0.18547 -0.188168,0.0927 -0.348299,0.18223 -0.09327,0.0534 -0.184933,0.12077 -0.105676,0.069 -0.211352,0.13802 -0.09004,0.0814 -0.181699,0.1488 -0.104059,0.083 -0.194099,0.16444 -0.324578,0.26472 -0.568281,0.4917 -0.243703,0.22698 -0.313794,0.23507 -0.249091,0.0571 -0.541855,0.10513 -0.305164,0.0636 -0.613562,0.0992 -0.350453,0.0404 -0.718159,0.0544 -0.380107,0.0297 -0.76183,0.0453 -1.388331,0.0323 -2.58418,-0.11381 -1.209867,-0.14451 -1.357591,-0.43997 -0.01563,-0.0124 -0.01725,-0.0264 0,0 -0.0016,-0.014 -0.0016,-0.014 -0.0049,-0.0421 -0.0016,-0.014 -0.0032,-0.028 -0.01617,-0.14018 0.02696,-0.2588 0.03073,-0.10298 0.101904,-0.22482 l 0.833021,-1.2751 q 0.02157,-0.0593 0.04475,-0.10459 0.0248,-0.0313 0.062,-0.0782 0.01078,-0.0297 0.03559,-0.0609 0.01078,-0.0297 0.02157,-0.0593 0.07279,-0.10783 0.150428,-0.17361 0.06362,-0.0642 0.124546,-0.0286 0.01564,0.0124 0.0097,0.0841 -0.01833,0.0873 -0.04745,0.20434 -0.0092,0.0437 -0.01672,0.10136 -0.0059,0.0717 -0.01348,0.1294 0.0049,0.042 0.0081,0.0701 -0.0092,0.0437 -0.0043,0.0857 0.0032,0.028 0.0049,0.0421 0.0032,0.028 0.0049,0.042 0.108904,0.32835 0.555323,0.50412 0.448037,0.1898 0.967244,0.25774 0.159051,0.0243 0.330503,0.0329 0.157434,0.0102 0.31325,0.006 l 2.385772,-0.005 q 0.169835,-0.005 0.35207,-0.0264 0.169835,-0.005 0.35207,-0.0264 0.01402,-0.002 0.02804,-0.003 0.01402,-0.002 0.02804,-0.003 0.588761,-0.0679 1.106895,-0.25554 0.504115,-0.186 0.641605,-0.47175 0.409236,-0.88529 0.54943,-1.64011 0.141811,-0.7408 0.07065,-1.35759 -0.152019,-1.31771 -1.110627,-2.11622 -0.958609,-0.7985 -2.25851,-1.23093 l -1.725833,-0.55375 q -0.22321,-0.0879 -0.427549,-0.13533 -0.20434,-0.0475 -0.407063,-0.0809 -0.187087,-0.021 -0.386575,-0.0264 -0.197871,0.009 -0.408143,0.0329 -0.04205,0.005 -0.08411,0.01 -0.04205,0.005 -0.08249,0.0237 -0.02804,0.003 -0.07009,0.008 -0.04205,0.005 -0.08411,0.01 -0.361236,0.0701 -0.633512,0.17252 -0.284678,0.11807 -0.536467,0.27496 -0.184933,0.12077 -0.369866,0.24153 -0.197334,0.13641 -0.407069,0.28845 z"
         id="path6589"
         style="fill:#4e00cf;fill-opacity:1" />
      <path
         d="m 46.860505,207.83141 0.02545,-0.0186 q -0.06245,0.0536 -0.433,0.23119 -0.368184,0.19152 -0.784905,0.43426 -0.157455,0.0841 -0.312541,0.18205 -0.155085,0.098 -0.29626,0.19359 -0.138807,0.10952 -0.275244,0.23295 -0.136437,0.12344 -0.258964,0.2445 -0.245052,0.24213 -0.453111,0.44933 -0.2196,0.22348 -0.411983,0.27056 -0.05327,0.0234 -0.108917,0.0329 -0.06955,0.0118 -0.139109,0.0237 -0.180841,0.0308 -0.391872,0.0524 -0.224943,0.024 -0.466165,0.0364 -0.05801,-0.004 -0.116024,-0.009 -0.05564,0.009 -0.111287,0.019 l -3.226157,0.22015 q -0.05801,-0.004 -0.357247,0.004 -0.299234,0.008 -0.663587,-0.0301 -0.378264,-0.0358 -0.71036,-0.13669 -0.332096,-0.1009 -0.386278,-0.33502 0,0 0,0 0,0 -0.0024,-0.0139 -0.01658,-0.0974 0.02248,-0.20422 0.02515,-0.10449 0.09203,-0.21608 0.04143,-0.0929 0.110682,-0.19061 0.06925,-0.0977 0.138504,-0.19536 0.05771,-0.0814 0.11542,-0.1628 0.0438,-0.079 0.0876,-0.15806 0.08523,-0.17197 0.161286,-0.31375 0.06451,-0.1255 0.14057,-0.26728 -0.0024,-0.0139 0.0092,-0.0302 0.01154,-0.0163 0.01154,-0.0163 0.07606,-0.14178 0.152112,-0.28356 0.07606,-0.14178 0.163655,-0.29984 -0.03196,0.14859 -0.03846,0.27852 -0.0065,0.12994 0.01482,0.25514 0.03079,0.18084 0.114865,0.33829 0.07253,0.17374 0.214609,0.33563 0.270254,0.32615 0.648518,0.36193 0.378264,0.0358 0.786416,-0.005 0.07192,0.002 0.141477,-0.01 0.06955,-0.0118 0.141478,-0.01 l 2.936397,-0.1565 q 0.252764,-0.0287 0.491618,-0.0551 0.241222,-0.0125 0.477706,-0.0527 0.264306,-0.045 0.493684,-0.12701 0.231747,-0.0681 0.451649,-0.20574 0.270808,-0.17494 0.403063,-0.82729 0.118343,-0.64998 0.09491,-1.37601 -6.04e-4,-0.17167 -0.01512,-0.34097 -0.01452,-0.1693 -0.04057,-0.32232 l -0.08825,-0.68637 -6.086751,0.8218 q -0.113656,0.005 -0.224943,0.024 -0.111286,0.0189 -0.208662,0.0355 -0.08347,0.0142 -0.15302,0.0261 -0.08346,0.0142 -0.16693,0.0284 -0.153019,0.0261 -0.31758,0.0684 -0.162193,0.0563 -0.352207,0.11723 -0.12046,0.0491 -0.229378,0.082 -0.106549,0.0468 -0.201556,0.0773 -0.106549,0.0468 -0.199187,0.0912 -0.106549,0.0468 -0.22464,0.10982 l -0.04677,-0.10655 q 0.0879,-0.0722 0.238249,-0.19803 0.152717,-0.11189 0.347166,-0.23088 0.152717,-0.1119 0.335625,-0.21461 0.168996,-0.10035 0.354273,-0.18916 0.02782,-0.005 0.06718,-0.0258 0.02782,-0.005 0.05327,-0.0234 0.722759,-0.29485 1.547934,-0.49263 0.811265,-0.1954 1.796566,-0.3775 l 3.08347,-0.55371 q -0.195658,-0.22434 -0.530728,-0.51082 -0.34898,-0.28412 -0.772253,-0.58421 -0.339505,-0.22847 -0.704463,-0.43829 -0.378868,-0.20745 -0.764541,-0.37081 -0.353114,-0.14026 -0.676037,-0.27136 -0.334465,-0.11481 -0.664192,-0.20181 -0.466769,-0.13523 -0.919325,-0.18699 -0.464098,-0.0355 -0.950978,0.0474 -0.194752,0.0332 -0.401045,0.0826 -0.203925,0.0634 -0.419392,0.14298 -0.106549,0.0468 -0.22464,0.10983 -0.132002,0.0654 -0.247724,0.14238 -0.0879,0.0722 -0.17817,0.13054 -0.101812,0.0746 -0.189712,0.14682 -0.277612,0.21905 -0.478866,0.38215 -0.198885,0.17701 -0.20836,0.12136 -0.0095,-0.0556 0.02041,-0.1323 0.02989,-0.0767 0.0876,-0.15806 0.04617,-0.0651 0.106247,-0.13261 0.06008,-0.0675 0.122527,-0.12106 0.01154,-0.0163 0.03699,-0.0349 0.01154,-0.0163 0.037,-0.0349 l 1.531001,-1.34859 q 0.134068,-0.13735 0.275243,-0.23296 0.127265,-0.0932 0.259266,-0.15866 0.261635,-0.14475 0.532746,-0.23386 0.27111,-0.0891 0.630423,-0.16461 0.04173,-0.007 0.08346,-0.0142 0.04173,-0.007 0.08347,-0.0142 0.361682,-0.0616 0.790852,-0.0631 0.417628,0.0148 0.865748,0.12454 0.341269,0.0707 0.692014,0.19707 0.339203,0.14264 0.671601,0.32938 l 1.85498,1.05828 q 0.883237,0.47942 1.370469,1.15511 0.4896,0.68959 0.655421,1.66335 0.01895,0.11129 0.0379,0.22257 0.01895,0.11129 0.02399,0.22495 0.01452,0.1693 0.0314,0.35251 0.003,0.18557 -0.01033,0.35961 5e-5,0.67276 -0.09758,1.27627 -0.11154,0.60588 -0.282301,0.86398 -0.01154,0.0163 -0.02545,0.0187 -0.01154,0.0163 -0.02308,0.0326 z"
         id="path6591"
         style="fill:#4e00cf;fill-opacity:1" />
    </g>
    <ellipse
       style="display:none;fill:#000000;fill-opacity:1;stroke-width:0.451129"
       id="path4292"
       cx="97.545837"
       cy="-210.16457"
       rx="81.530739"
       ry="14.231844"
       transform="scale(1,-1)" />
  </g>
</svg>
